<?xml version="1.0" standalone="no"?>
<!DOCTYPE svg PUBLIC "-//W3C//DTD SVG 20010904//EN"
 "http://www.w3.org/TR/2001/REC-SVG-20010904/DTD/svg10.dtd">
<svg version="1.0" xmlns="http://www.w3.org/2000/svg"
 width="1500.000000pt" height="1500.000000pt" viewBox="0 0 1500.000000 1500.000000"
 preserveAspectRatio="xMidYMid meet">
<metadata>
Created by potrace 1.14, written by Peter Selinger 2001-2017
</metadata>
<g transform="translate(0.000000,1500.000000) scale(0.100000,-0.100000)"
fill="#000000" stroke="none">
<path d="M11519 13740 c-30 -9 -164 -79 -299 -156 -320 -183 -463 -255 -725
-369 -69 -29 -247 -96 -347 -129 l-106 -35 -94 29 c-86 27 -266 76 -306 85
-141 30 -378 76 -417 81 -27 3 -52 8 -55 9 -3 2 -37 6 -75 10 -39 4 -72 9 -75
10 -3 2 -33 6 -65 10 -33 3 -73 8 -90 10 -16 2 -64 7 -105 10 -41 4 -85 8 -97
10 -11 2 -72 6 -135 10 -62 4 -129 8 -148 10 -219 25 -1299 24 -1570 0 -25 -2
-88 -7 -140 -10 -52 -3 -108 -7 -125 -9 -16 -2 -66 -7 -110 -11 -44 -4 -87 -8
-95 -10 -8 -1 -46 -6 -83 -10 -37 -3 -76 -8 -85 -9 -16 -3 -69 -11 -152 -22
-19 -3 -62 -10 -95 -16 -33 -5 -71 -12 -85 -14 -14 -3 -36 -7 -50 -9 -14 -3
-36 -8 -50 -10 -156 -29 -420 -98 -537 -139 -40 -14 -44 -13 -169 30 -280 97
-641 257 -854 379 -36 21 -81 46 -100 57 -19 11 -75 44 -125 73 -139 82 -250
135 -297 141 -84 11 -109 -53 -103 -261 3 -117 16 -260 31 -355 6 -39 51 -284
58 -315 46 -212 102 -433 166 -660 66 -230 68 -238 85 -312 27 -120 87 -310
155 -488 38 -99 85 -227 105 -285 62 -181 176 -462 220 -545 76 -144 221 -393
290 -500 121 -188 177 -273 245 -370 42 -60 79 -115 83 -122 5 -8 -8 -7 -45 3
-29 8 -64 16 -78 19 -41 8 -60 12 -170 35 -58 12 -114 24 -125 26 -53 10 -247
44 -281 49 -21 4 -50 8 -64 11 -63 11 -210 33 -265 40 -22 2 -51 7 -65 9 -14
2 -47 7 -75 10 -27 3 -67 7 -87 10 -21 3 -57 7 -80 10 -24 3 -59 8 -78 10 -19
3 -60 7 -90 10 -54 5 -104 10 -207 20 -29 3 -79 8 -110 11 -32 3 -75 7 -96 10
-51 7 -102 -11 -115 -41 -13 -28 -9 -76 12 -134 7 -23 13 -41 12 -41 -1 0 -42
14 -92 30 -49 17 -98 32 -109 35 -11 2 -64 15 -118 29 -290 75 -591 92 -786
44 -66 -16 -141 -51 -179 -84 -63 -54 -72 -164 -19 -223 41 -45 95 -61 228
-65 68 -3 133 -7 144 -9 11 -3 42 -8 68 -11 45 -7 68 -11 107 -21 8 -2 23 -4
33 -4 9 -1 17 -5 17 -9 0 -5 -34 -9 -76 -9 -100 -1 -251 -14 -324 -27 -19 -4
-48 -9 -65 -12 -167 -26 -420 -114 -519 -179 -138 -92 -163 -152 -115 -280 58
-154 187 -199 350 -122 151 72 366 129 569 152 30 3 69 8 85 10 17 3 120 7
230 10 l200 5 -100 -28 c-257 -73 -396 -206 -396 -382 0 -149 77 -215 256
-219 119 -3 211 14 400 74 254 81 540 153 715 180 25 4 54 9 65 11 11 2 34 6
50 9 17 3 41 7 55 10 14 2 52 7 85 10 33 4 76 8 95 10 282 31 566 34 870 10
81 -7 150 -14 190 -20 14 -2 48 -7 75 -11 28 -3 59 -8 70 -10 10 -2 37 -6 60
-10 220 -32 702 -169 909 -259 l38 -16 -68 -43 c-192 -119 -474 -225 -666
-251 -18 -3 -44 -7 -58 -10 -122 -25 -564 -26 -780 0 -14 1 -63 6 -110 10 -47
3 -107 8 -135 11 -78 7 -158 13 -263 19 -100 6 -134 9 -212 19 -25 3 -67 9
-95 12 -27 3 -61 7 -75 9 -14 2 -59 7 -100 10 -41 4 -93 8 -115 10 -55 5 -301
6 -350 0 -154 -16 -222 -30 -349 -71 -129 -41 -242 -104 -391 -215 -397 -296
-648 -760 -648 -1196 1 -85 12 -200 25 -248 5 -22 12 -51 15 -65 7 -42 73
-199 108 -259 150 -256 383 -433 690 -526 66 -20 161 -42 210 -48 120 -17 309
-13 437 8 13 2 39 6 58 9 201 30 499 119 766 229 810 335 1627 944 2087 1557
31 41 60 80 64 85 5 6 36 53 70 105 118 184 213 377 269 550 16 47 30 87 31
90 8 10 329 -180 474 -281 l97 -68 401 247 c221 136 414 254 429 263 15 9 873
537 1907 1174 1034 636 1886 1159 1893 1162 31 13 85 -10 142 -61 75 -67 138
-97 217 -104 108 -8 184 48 194 143 5 43 -11 164 -22 170 -5 4 -9 13 -9 22 0
46 77 -81 98 -162 6 -22 14 -69 17 -105 11 -118 16 -165 21 -201 2 -20 7 -54
9 -75 2 -21 7 -50 10 -64 3 -14 8 -41 11 -60 12 -68 56 -206 86 -268 63 -127
159 -206 254 -207 93 0 127 61 127 228 0 104 -10 354 -18 462 -10 130 -26 278
-32 288 -2 4 1 7 6 7 6 0 12 -7 12 -15 4 -43 47 -158 82 -216 57 -95 155 -140
259 -117 53 11 97 53 99 94 1 13 2 30 3 37 5 44 -90 414 -148 573 -14 38 -20
60 -13 50 68 -107 135 -135 253 -107 90 22 127 77 106 157 -29 107 -170 388
-232 462 -121 144 -250 240 -388 287 -96 34 -113 37 -247 40 -297 9 -614 -115
-1008 -393 -185 -131 -305 -230 -466 -385 -41 -40 -71 -63 -67 -52 63 169 276
829 366 1135 105 357 219 854 246 1075 3 22 7 49 9 60 10 51 20 212 20 330 0
112 -3 135 -20 164 -26 45 -58 53 -126 31z m-9189 -4436 c0 -2 -9 -4 -20 -4
-11 0 -20 4 -20 9 0 5 9 7 20 4 11 -3 20 -7 20 -9z"/>
<path d="M11765 9736 c-11 -8 -150 -91 -310 -186 -159 -95 -306 -186 -325
-203 -132 -115 -223 -319 -214 -477 2 -30 8 -75 13 -100 6 -25 13 -62 16 -84
3 -21 7 -41 9 -45 3 -3 7 -27 11 -51 3 -25 10 -61 15 -80 5 -19 11 -51 14 -70
3 -19 8 -46 11 -60 3 -14 7 -36 10 -50 13 -69 19 -88 35 -120 39 -76 118 -128
202 -133 89 -6 134 14 408 179 68 42 128 76 133 77 5 1 11 -5 12 -13 2 -8 6
-28 9 -45 3 -16 11 -57 17 -90 6 -33 19 -105 30 -160 11 -55 22 -116 24 -135
4 -45 -29 -123 -67 -155 -16 -14 -129 -84 -251 -156 -122 -73 -228 -137 -235
-143 -12 -12 -11 -17 12 -141 2 -11 7 -39 11 -62 4 -24 11 -45 16 -49 5 -3 99
49 210 115 110 67 204 121 209 121 4 0 10 4 12 8 2 4 23 20 48 34 73 42 154
131 208 228 57 101 85 275 61 378 -6 26 -12 58 -14 72 -2 14 -10 59 -19 100
-8 41 -29 149 -46 240 -17 91 -35 185 -40 210 -5 25 -28 142 -50 260 -22 118
-45 235 -50 260 -9 45 -65 333 -74 380 -4 24 -18 96 -22 113 -1 4 -2 16 -3 27
-1 23 -8 24 -36 6z m-155 -395 c0 -7 43 -235 57 -301 2 -14 6 -34 8 -45 2 -11
12 -67 24 -125 11 -58 27 -143 36 -189 9 -46 15 -84 13 -86 -2 -1 -88 -52
-191 -113 -272 -161 -276 -160 -326 103 -18 93 -35 180 -37 194 -3 14 -11 58
-19 98 -8 40 -15 87 -15 105 0 42 30 106 62 136 25 23 366 230 381 231 4 1 7
-3 7 -8z"/>
<path d="M9690 8475 c-54 -14 -115 -46 -279 -145 -166 -101 -237 -175 -302
-315 -60 -127 -68 -234 -30 -423 20 -99 25 -124 36 -187 3 -16 8 -37 10 -45 2
-8 7 -31 10 -50 5 -29 39 -210 50 -260 1 -8 6 -35 11 -60 4 -25 8 -47 9 -50 1
-3 5 -28 10 -56 4 -28 11 -57 15 -63 9 -16 235 118 235 139 1 8 -5 42 -12 76
-6 34 -14 74 -17 89 -3 16 -10 51 -15 79 -6 28 -29 148 -52 266 -22 118 -43
224 -45 235 -32 164 -33 189 -5 242 27 53 47 69 202 162 88 52 147 81 166 81
33 0 70 -30 78 -63 5 -24 51 -257 58 -297 11 -57 27 -147 32 -170 13 -66 57
-297 61 -315 2 -11 7 -36 10 -55 11 -61 13 -61 119 1 112 66 138 86 131 98 -3
4 -8 23 -11 42 -3 19 -8 45 -10 59 -9 41 -14 71 -31 160 -9 47 -18 94 -20 105
-3 11 -16 79 -29 150 -14 72 -27 137 -30 145 -2 8 -7 34 -10 58 -38 271 -102
358 -278 376 -12 1 -42 -3 -67 -9z"/>
<path d="M7835 7952 c-117 -70 -128 -79 -120 -101 3 -8 8 -30 11 -50 3 -20 12
-67 20 -104 8 -38 14 -70 14 -72 0 -3 226 129 237 139 1 1 -5 35 -13 76 -8 41
-17 90 -20 109 -13 76 -9 76 -129 3z"/>
<path d="M7930 7445 c-58 -35 -109 -65 -113 -67 -5 -2 -1 -44 8 -93 10 -50 19
-99 21 -110 9 -49 47 -249 64 -335 25 -125 71 -364 110 -573 l32 -167 32 19
c17 11 60 37 96 58 36 21 75 45 87 54 24 16 24 18 2 125 -5 28 -12 64 -15 80
-3 16 -20 108 -39 204 -32 166 -62 318 -136 703 -17 92 -34 167 -38 166 -3 0
-53 -29 -111 -64z"/>
<path d="M6649 7245 c-73 -44 -115 -76 -113 -85 2 -16 33 -182 40 -215 2 -11
6 -32 9 -47 3 -15 14 -71 24 -124 11 -54 18 -101 15 -105 -4 -8 -153 -99 -161
-99 -2 0 -23 -12 -46 -27 -50 -33 -65 -42 -135 -83 -114 -68 -220 -205 -263
-340 -38 -119 -36 -199 11 -435 23 -115 43 -221 45 -235 20 -138 65 -235 130
-277 72 -48 172 -53 261 -14 30 14 619 359 643 378 2 1 -6 51 -17 110 -12 60
-23 119 -26 133 -2 14 -7 36 -10 50 -3 14 -8 36 -10 50 -2 14 -14 77 -26 140
-12 63 -24 126 -26 140 -2 14 -9 45 -14 70 -5 25 -12 56 -14 70 -3 14 -10 50
-15 80 -6 30 -13 66 -16 80 -3 13 -7 42 -11 64 -3 22 -7 43 -9 47 -2 3 -7 21
-10 40 -5 32 -40 216 -50 269 -3 14 -8 41 -11 60 -3 19 -7 43 -10 52 -3 10 -7
30 -10 45 -17 99 -47 250 -53 263 -5 12 -29 2 -122 -55z m51 -941 c76 -393
120 -628 120 -639 0 -8 -84 -64 -187 -125 -248 -147 -276 -148 -307 -7 -23
109 -87 446 -92 489 -6 46 23 116 61 150 28 24 378 238 383 234 1 -2 11 -48
22 -102z"/>
<path d="M10955 7214 c-66 -40 -120 -77 -120 -81 -2 -21 -17 -53 -26 -53 -6 0
-6 7 0 19 14 26 1 35 -18 12 -9 -10 -27 -21 -41 -24 -14 -4 -56 -27 -95 -52
-38 -25 -74 -45 -80 -45 -5 0 -3 -4 5 -10 8 -5 11 -12 7 -16 -3 -4 -12 -2 -19
3 -9 8 -25 3 -56 -17 -24 -15 -43 -30 -43 -34 3 -22 -1 -27 -19 -21 -19 6 -68
-20 -309 -164 -34 -21 -44 -33 -47 -58 -3 -22 1 -33 13 -37 18 -7 32 9 34 39
l0 20 8 -20 c9 -24 -17 -67 -36 -60 -7 2 -13 0 -13 -6 0 -6 -6 -7 -12 -2 -7 4
-21 6 -30 5 -24 -4 -23 3 5 29 12 12 17 19 12 16 -6 -3 -17 -2 -24 3 -9 5 -32
-3 -65 -22 -28 -17 -67 -40 -86 -51 -50 -28 -420 -247 -450 -266 -26 -16 -55
-33 -158 -91 -39 -22 -62 -42 -62 -52 0 -10 -4 -18 -10 -18 -5 0 -10 4 -10 10
0 5 -20 -3 -44 -17 -25 -15 -42 -31 -39 -36 3 -4 -1 -7 -9 -5 -16 3 -108 -43
-108 -54 0 -5 -8 -8 -17 -8 -16 0 -16 -2 -3 -11 12 -8 12 -9 -5 -7 -29 4 -44
-9 -38 -32 6 -22 0 -25 -26 -11 -14 8 -45 -7 -140 -63 -104 -62 -119 -75 -106
-86 25 -21 17 -34 -10 -16 -26 17 -37 13 -124 -39 -176 -106 -291 -174 -324
-193 -22 -12 -48 -28 -56 -36 -9 -7 -24 -16 -33 -19 -9 -3 -154 -87 -321 -185
-167 -99 -318 -187 -335 -196 -18 -9 -30 -21 -27 -26 4 -6 -3 -10 -14 -10 -20
0 -461 -255 -473 -273 -4 -6 -4 -16 0 -22 3 -5 -1 -4 -10 3 -25 20 -88 -21
-88 -58 0 -16 -4 -31 -9 -34 -5 -4 -7 2 -4 13 7 28 -13 34 -46 15 -25 -15 -29
-23 -25 -48 4 -29 4 -30 -7 -8 -14 26 -27 29 -25 4 0 -9 -5 -16 -12 -14 -23 4
-7 -97 17 -115 12 -8 21 -21 21 -29 0 -8 4 -14 10 -14 5 0 7 -6 4 -14 -4 -10
-17 -13 -45 -11 -21 2 -41 -1 -44 -6 -7 -10 18 -39 34 -39 6 0 11 -4 11 -9 0
-6 8 -10 18 -9 9 0 27 -3 40 -5 12 -3 22 -2 22 3 0 4 9 6 20 3 11 -3 20 -14
20 -24 0 -11 6 -19 13 -19 9 0 9 -3 -1 -9 -11 -6 -6 -16 21 -43 27 -28 32 -37
21 -44 -11 -7 -12 -17 -5 -41 6 -20 6 -35 0 -38 -5 -4 -9 3 -9 14 0 12 -4 21
-10 21 -5 0 -12 0 -15 0 -3 0 -5 -3 -6 -7 0 -5 -5 -14 -11 -20 -7 -9 -7 -13 0
-13 5 0 13 -7 16 -16 4 -11 2 -15 -7 -11 -10 4 -14 -4 -14 -24 0 -32 11 -38
21 -13 5 14 9 14 23 3 15 -12 16 -11 11 9 -4 12 -2 20 3 16 14 -8 11 -34 -4
-40 -9 -3 -13 -20 -12 -49 2 -44 -10 -60 -21 -30 -4 8 -10 15 -15 15 -4 0 4
-20 19 -44 25 -40 51 -54 38 -20 -3 8 1 14 10 14 8 0 12 -4 9 -10 -3 -5 1 -10
9 -10 9 0 16 7 16 15 0 8 -4 15 -10 15 -5 0 -10 4 -10 9 0 5 14 9 30 9 29 -1
39 -11 21 -23 -6 -3 -6 -17 -1 -35 6 -21 5 -30 -3 -30 -8 0 -8 -3 1 -12 13
-13 16 -29 5 -27 -5 1 -18 -2 -30 -6 -21 -7 -39 -55 -20 -55 15 0 -1 -14 -19
-16 -14 -2 -15 4 -10 37 5 31 3 39 -9 39 -9 0 -13 -4 -10 -10 3 -5 1 -10 -4
-10 -6 0 -10 -3 -9 -7 1 -5 -3 -17 -9 -29 -10 -17 -9 -25 3 -43 9 -12 20 -18
27 -14 8 5 8 2 -1 -9 -12 -15 -7 -48 7 -48 5 0 6 -31 2 -73 -1 -5 -5 -6 -11
-2 -5 3 -7 12 -3 20 3 8 1 15 -5 15 -5 0 -8 13 -6 30 3 22 0 30 -13 30 -13 0
-15 -8 -10 -45 4 -25 2 -47 -3 -50 -6 -3 -10 -15 -10 -26 0 -16 10 -22 36 -18
11 1 22 -23 17 -37 -2 -7 -15 -15 -29 -18 -23 -6 -23 -8 -9 -30 12 -17 13 -25
4 -28 -17 -6 -17 -51 1 -65 13 -11 12 -13 -5 -13 -11 -1 -14 -4 -7 -7 6 -2 9
-10 5 -16 -9 -15 -10 -57 -1 -63 4 -3 5 -11 1 -19 -3 -8 0 -15 6 -15 6 0 8 -7
4 -16 -4 -10 0 -20 10 -26 10 -5 14 -15 10 -25 -4 -11 -3 -14 5 -9 18 11 15
-9 -3 -24 -14 -12 -14 -15 0 -30 11 -12 13 -20 6 -25 -13 -8 -15 -55 -2 -55 5
0 12 6 14 13 3 7 6 4 6 -6 1 -10 -6 -25 -14 -33 -13 -13 -15 -12 -21 11 -7 30
-25 23 -20 -8 3 -12 5 -27 5 -34 1 -7 8 -10 16 -7 8 4 15 1 15 -5 0 -6 4 -11
9 -11 5 0 7 9 4 20 -4 16 -1 20 18 19 13 0 18 -3 11 -6 -10 -4 -9 -9 4 -24 9
-10 23 -19 31 -19 7 0 13 -4 13 -10 0 -5 -7 -10 -15 -10 -18 0 -38 -36 -29
-52 4 -7 3 -8 -4 -4 -8 4 -12 0 -12 -11 0 -11 -5 -24 -12 -31 -15 -15 -5 -24
27 -24 14 0 25 -6 25 -12 -1 -19 -39 -58 -50 -51 -5 3 -10 2 -10 -4 0 -6 12
-18 28 -26 15 -9 19 -14 10 -11 -15 4 -18 -1 -18 -27 0 -18 -5 -38 -12 -45 -9
-9 -8 -12 8 -12 15 0 20 -7 19 -27 0 -20 6 -28 25 -33 15 -4 24 -13 24 -23 -1
-11 5 -17 20 -16 11 0 15 3 9 6 -22 8 -14 21 12 21 14 0 25 -6 25 -14 0 -10 6
-11 26 -4 32 12 34 12 34 -1 0 -5 -5 -7 -11 -4 -11 7 -9 -26 2 -35 4 -3 -6
-21 -22 -40 -21 -24 -29 -29 -29 -17 0 9 -6 17 -14 17 -7 0 -17 10 -20 23 -7
21 -7 21 -15 2 -6 -14 -4 -21 5 -23 8 -2 14 -10 14 -17 0 -7 6 -16 13 -19 6
-2 3 -4 -8 -4 -42 2 -54 -2 -49 -16 3 -9 -3 -17 -15 -21 -12 -3 -21 -11 -21
-16 0 -6 -4 -7 -10 -4 -6 4 -8 -15 -5 -52 2 -31 0 -62 -4 -68 -10 -13 23 -211
39 -230 6 -8 9 -19 6 -24 -4 -5 3 -16 14 -24 17 -12 18 -15 6 -20 -19 -7 -10
-37 10 -37 8 0 14 -10 14 -22 0 -19 -2 -20 -10 -8 -20 32 -9 -3 21 -63 17 -34
38 -66 45 -70 8 -4 14 -13 14 -19 0 -16 58 -66 104 -90 21 -11 62 -22 91 -25
46 -5 54 -3 68 17 9 13 15 26 13 29 -2 3 -9 56 -15 116 -7 61 -14 126 -16 145
-2 19 -6 73 -10 120 -3 47 -8 96 -10 110 -2 14 -6 72 -10 130 -3 58 -8 125
-10 150 -3 25 -7 97 -10 160 -3 63 -7 143 -10 177 -5 70 -13 57 96 158 45 42
192 171 209 183 2 2 4 21 4 42 -1 33 1 37 12 25 8 -8 11 -21 7 -31 -6 -15 -2
-15 23 4 56 42 64 49 64 60 0 6 5 14 12 18 7 5 8 3 3 -6 -7 -12 109 72 125 90
3 3 55 38 115 77 162 107 156 103 153 126 -4 28 -78 83 -131 99 -66 19 -173
14 -247 -11 -91 -31 -320 -179 -429 -278 -30 -26 -39 -23 -36 14 1 15 -3 32
-9 36 -8 6 -8 10 0 13 8 3 11 96 4 124 -1 3 -1 34 -1 70 1 36 3 263 5 505 3
242 5 460 5 485 1 40 5 48 36 69 19 13 35 29 35 37 0 7 8 12 18 12 9 -1 80 39
157 88 77 50 227 143 333 208 107 65 196 124 199 132 2 7 11 10 19 7 12 -5 19
7 15 30 0 4 4 7 9 7 6 0 10 -5 10 -11 0 -6 17 -1 38 12 40 24 68 47 42 35 -8
-4 -6 -1 4 8 10 8 24 13 29 9 6 -4 8 0 4 9 -4 12 3 17 31 21 20 2 65 23 99 46
34 22 66 41 71 41 5 0 20 10 34 23 13 12 41 30 62 40 73 34 285 169 283 179
-1 6 4 13 11 15 6 3 12 0 12 -6 0 -6 42 15 93 47 50 31 129 79 175 107 50 30
82 55 82 66 0 9 7 23 16 30 15 12 16 11 10 -9 -5 -14 -3 -22 4 -22 7 0 14 9
17 19 3 11 11 17 18 15 6 -3 81 36 166 87 85 51 168 100 184 109 17 10 111 66
210 125 99 60 192 115 207 124 15 9 134 79 264 156 130 77 252 150 272 161 25
15 36 27 34 40 -3 15 -1 16 11 6 20 -17 82 26 81 56 0 12 6 24 13 26 9 4 12 1
8 -7 -4 -6 3 -1 14 13 19 23 20 35 4 78 -3 6 0 12 6 12 10 0 15 -13 13 -31 -1
-4 8 -9 18 -12 12 -3 20 0 20 7 0 14 45 38 54 29 3 -3 -3 -18 -14 -33 -11 -16
-20 -31 -20 -34 0 -13 69 31 73 47 3 10 11 15 20 11 8 -3 17 -1 21 4 3 4 34
23 70 42 56 28 65 36 60 55 -4 16 -1 22 13 22 10 0 21 -4 24 -10 4 -5 24 1 48
15 23 14 39 26 37 29 -2 2 -7 18 -9 34 -25 141 -41 215 -46 214 -3 0 -60 -34
-126 -75z m-68 -151 c-2 -19 -10 -39 -18 -43 -11 -7 -10 -12 4 -28 19 -21 22
-32 7 -32 -5 0 -10 8 -10 18 0 14 -2 15 -10 2 -7 -12 -10 -8 -11 15 0 17 -1
47 -2 68 -2 37 7 48 31 39 8 -3 11 -17 9 -39z m83 37 c0 -5 -2 -10 -4 -10 -3
0 -8 5 -11 10 -3 6 -1 10 4 10 6 0 11 -4 11 -10z m-230 -42 c0 -10 3 -9 9 1
13 20 34 9 37 -20 3 -22 3 -22 -7 -5 -9 14 -13 15 -19 6 -10 -17 -40 -5 -40
15 0 8 5 15 10 15 6 0 10 -6 10 -12z m87 -2 c-5 -16 -27 -19 -27 -3 0 7 7 14
15 14 9 0 14 -5 12 -11z m233 -22 c0 -8 -5 -12 -10 -9 -6 4 -8 11 -5 16 9 14
15 11 15 -7z m-243 -55 c1 -14 0 -17 -3 -7 -4 14 -9 16 -25 7 -18 -9 -19 -8
-7 10 16 26 32 22 35 -10z m-83 3 c2 -4 1 -14 -5 -22 -7 -12 -9 -12 -9 3 0 10
-5 15 -11 12 -6 -4 -8 -13 -5 -21 3 -7 1 -16 -4 -19 -14 -9 -12 29 2 43 14 14
25 15 32 4z m-96 -29 c8 -18 9 -30 2 -37 -15 -15 -12 -29 6 -22 8 3 12 2 9 -4
-3 -6 -14 -10 -23 -10 -13 0 -18 11 -20 50 -3 55 6 64 26 23z m118 -33 c0 -11
-4 -20 -8 -20 -4 0 -8 9 -8 20 0 11 4 20 8 20 4 0 8 -9 8 -20z m136 -12 c-7
-7 -12 -8 -12 -2 0 14 12 26 19 19 2 -3 -1 -11 -7 -17z m-710 -213 c3 -13 1
-22 -3 -19 -9 5 -13 44 -5 44 2 0 6 -11 8 -25z m58 -5 c0 -5 -10 -10 -22 -9
-22 0 -22 1 -3 9 11 5 21 9 23 9 1 1 2 -3 2 -9z m-48 -125 c3 -14 1 -28 -3
-31 -5 -3 -9 9 -9 25 0 38 6 40 12 6z m-128 -18 c4 -19 3 -26 -4 -22 -5 3 -10
18 -10 32 0 32 5 28 14 -10z m46 13 c8 -5 11 -10 5 -10 -5 0 -17 5 -25 10 -8
5 -10 10 -5 10 6 0 17 -5 25 -10z m-132 -18 c4 -14 -34 -16 -42 -3 -6 10 13
21 28 17 6 -1 12 -8 14 -14z m-98 -32 c0 -5 -5 -10 -11 -10 -5 0 -7 5 -4 10 3
6 8 10 11 10 2 0 4 -4 4 -10z m295 -19 c-3 -6 -11 -11 -17 -11 -6 0 -6 6 2 15
14 17 26 13 15 -4z m-173 -43 c-7 -7 -12 -8 -12 -2 0 14 12 26 19 19 2 -3 -1
-11 -7 -17z m-81 1 c16 -8 18 -13 9 -24 -10 -11 -14 -11 -30 2 -11 9 -17 20
-14 25 7 10 11 10 35 -3z m-827 -437 c3 -5 -3 -15 -12 -23 -16 -13 -20 -13
-36 2 -17 17 -17 17 1 22 30 8 42 7 47 -1z m99 2 c9 -10 -21 -36 -33 -29 -8 5
-7 11 1 21 12 15 22 18 32 8z m-398 -158 c0 -15 -4 -21 -9 -16 -5 5 -6 16 -3
24 9 22 12 20 12 -8z m202 18 c-3 -3 -12 -4 -19 -1 -8 3 -5 6 6 6 11 1 17 -2
13 -5z m52 -38 c9 -10 8 -16 -4 -26 -13 -11 -15 -8 -15 14 0 30 3 32 19 12z
m-34 -46 c-3 -5 -13 -6 -21 -3 -12 4 -13 8 -3 14 15 9 32 2 24 -11z m-355 -61
c27 3 26 -1 -6 -17 -16 -9 -22 -7 -33 10 -10 16 -10 19 1 12 7 -5 24 -7 38 -5z
m-403 -175 c-3 -3 -12 -4 -19 -1 -8 3 -5 6 6 6 11 1 17 -2 13 -5z m-124 -70
c-10 -7 -25 -13 -33 -13 -10 0 -11 2 -2 6 6 2 10 8 8 11 -2 4 7 8 20 8 23 2
24 1 7 -12z m97 -32 c0 -13 -12 -22 -22 -16 -10 6 -1 24 13 24 5 0 9 -4 9 -8z
m22 -24 c-7 -7 -12 -8 -12 -2 0 14 12 26 19 19 2 -3 -1 -11 -7 -17z m-68 -53
c-4 -8 -8 -15 -10 -15 -2 0 -4 7 -4 15 0 8 4 15 10 15 5 0 7 -7 4 -15z m-107
-52 c-4 -3 0 -14 9 -24 10 -11 12 -19 4 -24 -5 -3 -7 -12 -3 -18 4 -7 -1 -6
-11 2 -10 8 -15 23 -13 33 3 10 -2 22 -11 28 -14 8 -13 9 7 10 13 0 21 -3 18
-7z m-687 -337 c0 -2 -7 -7 -16 -10 -8 -3 -12 -2 -9 4 6 10 25 14 25 6z m-90
-26 c0 -5 -4 -10 -10 -10 -5 0 -10 5 -10 10 0 6 5 10 10 10 6 0 10 -4 10 -10z
m75 -80 c3 -5 -1 -10 -10 -10 -9 0 -13 5 -10 10 3 6 8 10 10 10 2 0 7 -4 10
-10z m-14 -61 c-3 -25 -19 -41 -32 -33 -11 6 14 65 26 61 5 -2 8 -15 6 -28z
m-464 -59 c0 -16 -6 -30 -12 -30 -6 0 -12 14 -12 30 0 17 6 30 12 30 6 0 12
-13 12 -30z m-57 -62 c0 -5 -4 -6 -10 -3 -5 3 -10 -1 -10 -10 0 -10 -7 -15
-17 -13 -12 2 -19 -5 -21 -21 -4 -23 -3 -23 14 -7 13 14 19 15 25 5 4 -7 5
-17 3 -21 -3 -4 0 -8 5 -8 6 0 11 7 11 15 0 8 7 15 15 15 21 0 19 -13 -6 -28
-14 -9 -24 -10 -33 -3 -16 14 -26 4 -18 -17 5 -15 4 -15 -12 0 -9 10 -24 22
-33 27 -15 8 -13 13 15 36 18 15 32 33 32 40 0 8 7 11 20 8 11 -3 20 -10 20
-15z m30 3 c0 -10 -7 -24 -15 -31 -9 -8 -15 -9 -15 -2 0 6 5 14 11 17 6 4 8
13 5 21 -3 8 -1 14 4 14 6 0 10 -8 10 -19z m135 -11 c3 -5 1 -10 -4 -10 -6 0
-11 5 -11 10 0 6 2 10 4 10 3 0 8 -4 11 -10z m-78 -34 c-2 -19 -9 -41 -16 -50
-10 -12 -9 -20 4 -40 11 -16 13 -26 6 -26 -6 0 -11 8 -11 18 0 14 -2 15 -10 2
-10 -15 -12 -3 -14 85 -1 40 2 45 25 45 16 0 19 -6 16 -34z m173 -36 c0 -5 -4
-10 -10 -10 -5 0 -10 5 -10 10 0 6 5 10 10 10 6 0 10 -4 10 -10z m-240 -39 c0
-5 -8 -11 -17 -14 -10 -2 -26 -8 -35 -12 -11 -4 -18 -3 -18 5 0 6 5 8 10 5 6
-3 13 1 16 9 6 17 44 23 44 7z m228 -8 c-2 -10 -10 -18 -18 -18 -8 0 -16 8
-18 18 -2 12 3 17 18 17 15 0 20 -5 18 -17z m-231 -35 c-3 -8 -6 -5 -6 6 -1
11 2 17 5 13 3 -3 4 -12 1 -19z m-27 -3 c-9 -11 -10 -18 -1 -28 6 -8 8 -17 4
-20 -3 -4 2 -7 13 -7 16 0 16 -2 4 -10 -9 -5 -19 -5 -24 0 -4 4 -15 6 -22 3
-8 -3 -14 -1 -14 5 0 6 -10 8 -22 6 -17 -3 -15 0 7 10 17 8 30 18 30 23 0 14
16 33 27 33 7 0 6 -6 -2 -15z m240 -25 c0 -11 -3 -20 -7 -21 -5 0 -18 -2 -30
-5 l-22 -4 22 24 c28 30 37 31 37 6z m-143 -22 c-3 -8 -6 -5 -6 6 -1 11 2 17
5 13 3 -3 4 -12 1 -19z m32 -9 c-16 -10 -23 -4 -14 10 3 6 11 8 17 5 6 -4 5
-9 -3 -15z m-31 -33 c25 -8 20 -26 -7 -26 -23 0 -45 25 -36 41 5 7 10 7 14 1
3 -5 16 -12 29 -16z m92 -26 c13 -8 13 -10 -2 -10 -9 0 -20 5 -23 10 -8 13 5
13 25 0z m-72 -41 c9 -14 10 -19 2 -14 -9 5 -10 1 -5 -15 6 -20 5 -21 -14 -10
-12 6 -19 15 -16 20 3 4 -1 11 -7 13 -10 4 -9 8 2 16 21 15 23 14 38 -10z m33
-146 c0 -10 2 -26 4 -37 2 -10 1 -25 -2 -33 -4 -11 -9 -8 -18 13 -7 18 -9 36
-4 46 7 12 4 18 -9 21 -13 4 -11 5 6 6 14 1 22 -5 23 -16z m149 -29 c0 -14 -6
-24 -14 -24 -19 0 -26 21 -14 43 12 23 28 12 28 -19z m-110 -44 c0 -5 -4 -10
-10 -10 -5 0 -10 5 -10 10 0 6 5 10 10 10 6 0 10 -4 10 -10z m110 0 c0 -5 -7
-7 -15 -4 -8 4 -15 8 -15 10 0 2 7 4 15 4 8 0 15 -4 15 -10z m-97 -46 c-2 -7
-13 -10 -24 -7 -14 4 -19 0 -20 -13 0 -18 -1 -18 -9 1 -14 32 -12 34 24 32 20
-1 32 -6 29 -13z m22 -121 c-4 -10 -8 -25 -9 -32 -2 -8 -8 -17 -14 -19 -7 -2
-10 2 -6 11 3 8 0 18 -6 22 -14 9 6 35 27 35 10 0 13 -6 8 -17z m42 11 c-3 -3
-12 -4 -19 -1 -8 3 -5 6 6 6 11 1 17 -2 13 -5z m-73 -82 c3 -5 -1 -9 -9 -9 -8
0 -12 4 -9 9 3 4 7 8 9 8 2 0 6 -4 9 -8z m-34 -42 c0 -5 -5 -10 -11 -10 -5 0
-7 5 -4 10 3 6 8 10 11 10 2 0 4 -4 4 -10z m38 -52 c-1 -18 1 -38 3 -44 2 -7
0 -13 -6 -14 -5 0 -14 15 -19 36 -6 27 -5 38 5 45 8 5 15 9 16 9 0 0 1 -15 1
-32z m-18 -68 c0 -5 -4 -10 -10 -10 -5 0 -10 5 -10 10 0 6 5 10 10 10 6 0 10
-4 10 -10z m40 -79 c0 -3 -10 -7 -23 -7 -19 -1 -23 3 -22 27 l0 28 22 -21 c13
-12 23 -24 23 -27z m920 -33 c0 -12 -3 -18 -7 -14 -11 10 -12 36 -2 36 5 0 9
-10 9 -22z m-186 -4 c3 -8 2 -12 -4 -9 -6 3 -10 1 -10 -6 0 -7 -3 -10 -6 -6
-7 6 2 37 10 37 2 0 7 -7 10 -16z m-661 -29 c-7 -21 -13 -19 -13 6 0 11 4 18
10 14 5 -3 7 -12 3 -20z m-53 -35 c-20 -12 -33 -1 -19 16 9 11 15 12 23 4 8
-8 7 -13 -4 -20z m-127 -6 c9 -10 -4 -34 -19 -34 -8 0 -14 -4 -14 -10 0 -5 -4
-10 -9 -10 -10 0 -9 14 4 43 7 17 26 23 38 11z m847 -31 c0 -24 -13 -43 -29
-42 -10 0 -11 2 -3 6 6 2 12 11 12 20 0 10 -6 12 -21 8 -14 -5 -19 -3 -15 3 3
6 0 13 -6 15 -7 3 4 5 24 4 21 -1 38 -7 38 -14z m-740 -2 c0 -5 -9 -11 -20
-14 -22 -6 -28 8 -7 16 19 8 27 8 27 -2z m36 -13 c4 -7 3 -8 -4 -4 -7 4 -12 2
-12 -3 0 -6 4 -11 10 -11 6 0 6 -9 0 -24 -5 -13 -6 -27 -3 -30 4 -3 1 -6 -6
-6 -8 0 -10 7 -6 20 6 18 3 20 -19 14 -21 -5 -24 -3 -19 16 3 12 11 19 18 16
8 -3 16 2 19 10 7 17 12 18 22 2z m-136 -8 c0 -5 -4 -10 -10 -10 -5 0 -10 5
-10 10 0 6 5 10 10 10 6 0 10 -4 10 -10z m512 -35 c-2 -14 -9 -28 -15 -32 -5
-3 -7 -1 -4 4 4 6 0 14 -8 17 -13 5 -13 8 2 24 23 24 32 19 25 -13z m518 31
c0 -2 -7 -6 -15 -10 -8 -3 -15 -1 -15 4 0 6 7 10 15 10 8 0 15 -2 15 -4z
m-188 -38 c-9 -9 -15 -9 -24 0 -9 9 -7 12 12 12 19 0 21 -3 12 -12z m-87 -18
c3 -5 -1 -10 -10 -10 -9 0 -13 5 -10 10 3 6 8 10 10 10 2 0 7 -4 10 -10z
m-765 -14 c0 -9 -30 -14 -35 -6 -4 6 3 10 14 10 12 0 21 -2 21 -4z m-45 -46
c2 -32 -11 -42 -17 -12 -5 21 2 55 10 47 3 -2 6 -18 7 -35z m192 29 c-10 -6
-21 -8 -24 -5 -3 3 -14 1 -24 -4 -11 -6 -20 -6 -24 -1 -6 11 17 18 60 20 26 0
27 -1 12 -10z m617 -21 c5 -21 3 -26 -7 -22 -9 3 -12 14 -9 30 5 29 7 28 16
-8z m-704 8 c0 -3 -4 -8 -10 -11 -5 -3 -10 -1 -10 4 0 6 5 11 10 11 6 0 10 -2
10 -4z m395 -6 c3 -5 1 -10 -4 -10 -6 0 -11 5 -11 10 0 6 2 10 4 10 3 0 8 -4
11 -10z m-440 -17 c-2 -10 -4 -21 -4 -25 -1 -5 -5 -8 -10 -8 -4 0 -6 11 -3 25
2 14 8 25 12 25 5 0 7 -8 5 -17z m119 -8 c3 -8 1 -15 -4 -15 -6 0 -10 7 -10
15 0 8 2 15 4 15 2 0 6 -7 10 -15z m366 5 c0 -5 -5 -10 -11 -10 -5 0 -7 5 -4
10 3 6 8 10 11 10 2 0 4 -4 4 -10z m-443 -36 c1 -20 -4 -43 -12 -51 -12 -11
-16 -11 -25 7 -9 16 -6 26 12 50 12 16 22 30 22 30 1 0 2 -16 3 -36z m583 1
c0 -8 -4 -15 -9 -15 -13 0 -22 16 -14 24 11 11 23 6 23 -9z m-437 -20 c-3 -9
-8 -14 -10 -11 -3 3 -2 9 2 15 9 16 15 13 8 -4z m-238 -5 c3 -5 1 -10 -4 -10
-6 0 -11 5 -11 10 0 6 2 10 4 10 3 0 8 -4 11 -10z m332 -42 c2 -17 0 -19 -7
-8 -5 8 -6 18 -4 22 8 12 10 10 11 -14z m178 12 c-3 -5 -11 -10 -16 -10 -6 0
-7 5 -4 10 3 6 11 10 16 10 6 0 7 -4 4 -10z m-398 -16 c-3 -3 -12 -4 -19 -1
-8 3 -5 6 6 6 11 1 17 -2 13 -5z m68 -24 c-3 -4 7 -16 22 -25 25 -17 26 -18 8
-31 -10 -8 -28 -14 -39 -14 -17 0 -18 2 -6 9 8 6 18 7 24 4 5 -3 6 -1 2 5 -4
7 -16 12 -27 12 -13 0 -19 -7 -19 -24 0 -19 4 -23 20 -19 20 5 21 5 24 -62 1
-13 9 -21 24 -23 26 -4 27 -10 7 -36 -15 -20 -15 -20 -15 0 0 15 -2 16 -9 4
-6 -8 -7 -19 -3 -25 3 -5 -2 -4 -10 3 -9 8 -18 25 -20 40 -4 34 -34 43 -33 10
0 -13 3 -28 8 -35 4 -6 4 -19 1 -28 -5 -13 -8 -14 -15 -3 -6 9 -9 5 -9 -14 0
-20 -4 -26 -15 -22 -12 5 -13 10 -4 20 6 7 8 17 5 23 -4 5 4 12 16 14 18 3 17
5 -7 6 -34 2 -73 21 -43 21 21 0 20 40 -2 40 -8 1 3 10 24 21 29 16 35 23 25
29 -8 5 -19 4 -26 -1 -7 -6 -18 -7 -24 -3 -9 5 -8 10 4 19 16 11 20 55 5 55
-4 0 -8 7 -8 15 0 8 2 15 4 15 2 0 13 3 23 7 15 6 16 4 5 -9 -16 -20 -5 -48
18 -48 24 0 41 22 30 40 -6 9 -5 17 2 21 14 9 40 0 33 -11z m472 4 c-3 -3 -12
-4 -19 -1 -8 3 -5 6 6 6 11 1 17 -2 13 -5z m-311 -31 c-10 -10 -19 5 -10 18 6
11 8 11 12 0 2 -7 1 -15 -2 -18z m324 -18 c0 -8 -2 -15 -4 -15 -2 0 -6 7 -10
15 -3 8 -1 15 4 15 6 0 10 -7 10 -15z m-75 -35 c3 -5 1 -10 -4 -10 -6 0 -11 5
-11 10 0 6 2 10 4 10 3 0 8 -4 11 -10z m-288 -16 c-3 -3 -12 -4 -19 -1 -8 3
-5 6 6 6 11 1 17 -2 13 -5z m13 -81 c0 -5 -4 -15 -10 -23 -11 -18 -25 -7 -17
15 6 15 27 21 27 8z m-7 -121 c-3 -12 -9 -22 -14 -22 -12 0 -11 7 2 32 13 25
20 19 12 -10z m37 18 c0 -5 -4 -10 -10 -10 -5 0 -10 5 -10 10 0 6 5 10 10 10
6 0 10 -4 10 -10z m-288 -62 c-9 -9 -15 -9 -24 0 -9 9 -7 12 12 12 19 0 21 -3
12 -12z m261 -38 c-3 -12 1 -20 14 -23 15 -4 14 -5 -4 -6 -14 -1 -23 5 -23 13
0 8 -4 16 -10 18 -5 2 -7 14 -3 27 6 22 7 22 18 7 7 -9 11 -25 8 -36z m-123
29 c0 -5 6 -7 13 -3 6 4 1 -5 -12 -19 -15 -16 -35 -27 -51 -27 -14 0 -34 -9
-43 -21 -10 -11 -21 -18 -25 -15 -3 4 4 13 16 22 12 8 22 23 22 32 0 10 3 13
8 7 4 -6 13 -10 20 -9 6 1 18 2 26 3 9 1 13 9 11 21 -2 11 0 20 6 20 5 0 9 -5
9 -11z m7 -111 c-3 -8 -6 -5 -6 6 -1 11 2 17 5 13 3 -3 4 -12 1 -19z m-60 -53
c4 -11 6 -26 4 -33 -1 -7 5 -20 14 -28 20 -20 16 -25 -13 -17 -12 3 -22 12
-22 19 0 8 -8 15 -17 15 -17 1 -17 2 0 6 23 6 22 23 -1 23 -18 0 -25 20 -16
48 5 17 42 -6 51 -33z m-73 9 c9 -23 8 -24 -13 -24 -14 0 -18 5 -14 20 6 24
19 26 27 4z m112 -31 c-7 -7 -26 7 -26 19 0 6 6 6 15 -2 9 -7 13 -15 11 -17z
m94 -28 c-14 -7 -27 -11 -30 -9 -6 7 22 24 40 23 9 0 5 -6 -10 -14z m-203 -20
c0 -8 -4 -12 -9 -9 -4 3 -8 9 -8 15 0 5 4 9 8 9 5 0 9 -7 9 -15z m233 -129 c0
-15 -7 -26 -19 -29 -28 -7 -33 2 -13 29 22 30 32 30 32 0z m-206 -97 c-9 -10
-21 -16 -26 -13 -11 7 24 43 35 37 5 -3 1 -13 -9 -24z m146 15 c0 -8 -5 -12
-10 -9 -6 4 -8 11 -5 16 9 14 15 11 15 -7z m-80 -44 c0 -5 -5 -10 -11 -10 -5
0 -7 5 -4 10 3 6 8 10 11 10 2 0 4 -4 4 -10z m3 -35 c4 -8 3 -16 -1 -19 -13
-8 -35 11 -28 23 10 15 23 14 29 -4z m-25 -28 c18 -14 15 -38 -4 -30 -13 5
-15 2 -10 -15 4 -11 3 -23 -3 -26 -13 -8 -23 23 -15 47 3 11 2 17 -2 15 -5 -3
-18 -2 -29 3 -17 6 -17 8 -2 8 9 1 17 5 17 11 0 10 27 3 48 -13z m-88 -103 c0
-8 -5 -12 -10 -9 -6 4 -8 11 -5 16 9 14 15 11 15 -7z m111 4 c0 -7 2 -23 3
-35 2 -13 -1 -23 -5 -23 -4 0 -9 16 -11 35 -2 19 0 35 4 35 4 0 8 -6 9 -12z
m-61 -27 c0 -12 -29 -35 -36 -28 -11 10 5 37 21 37 8 0 15 -4 15 -9z m20 -49
c0 -5 -7 -9 -15 -9 -8 0 -12 4 -9 9 3 4 9 8 15 8 5 0 9 -4 9 -8z m157 -438
c-9 -9 -28 6 -21 18 4 6 10 6 17 -1 6 -6 8 -13 4 -17z"/>
<path d="M6965 3330 c-3 -5 -2 -10 4 -10 5 0 13 5 16 10 3 6 2 10 -4 10 -5 0
-13 -4 -16 -10z"/>
<path d="M7052 3129 c2 -6 8 -10 13 -10 5 0 11 4 13 10 2 6 -4 11 -13 11 -9 0
-15 -5 -13 -11z"/>
<path d="M10690 6779 c0 -5 5 -7 10 -4 6 3 10 8 10 11 0 2 -4 4 -10 4 -5 0
-10 -5 -10 -11z"/>
<path d="M11059 6193 c-73 -19 -104 -40 -88 -59 6 -8 18 -13 27 -12 8 2 16 -3
18 -10 1 -7 0 -8 -3 -2 -3 7 -10 7 -20 -2 -12 -10 -17 -9 -24 5 -17 30 -35 19
-91 -60 -64 -90 -101 -159 -93 -173 3 -6 -1 -10 -9 -10 -9 0 -18 -13 -22 -35
-3 -19 -10 -35 -15 -35 -5 0 -9 -9 -9 -19 0 -11 -4 -23 -10 -26 -24 -15 -7
-25 33 -20 l42 5 -30 -14 c-16 -9 -38 -15 -47 -16 -20 0 -52 -66 -43 -87 2 -8
1 -12 -4 -9 -6 4 -60 -153 -75 -219 -1 -5 -13 21 -26 58 -20 55 -27 66 -42 61
-12 -4 -18 0 -18 11 0 12 5 15 16 11 15 -6 15 -3 -1 21 -47 75 -61 93 -72 93
-7 0 -13 6 -13 14 0 19 -76 74 -122 88 -57 17 -85 1 -92 -54 -15 -112 -27
-393 -30 -666 -1 -155 0 -162 19 -163 17 -1 17 -2 3 -6 -10 -2 -18 -10 -19
-16 0 -7 -2 -22 -3 -33 -2 -22 8 -25 32 -11 16 11 15 -13 -2 -35 -10 -14 -15
-15 -26 -5 -7 7 -10 7 -7 1 3 -5 9 -80 12 -165 11 -241 10 -232 30 -239 17 -6
17 -7 2 -13 -19 -7 -24 -37 -6 -37 5 0 8 4 4 9 -3 5 -2 12 3 15 5 3 9 0 9 -7
0 -7 4 -20 8 -31 7 -15 5 -17 -13 -12 -17 6 -21 4 -16 -8 3 -8 13 -17 22 -19
15 -4 15 -5 -1 -6 -13 -1 -17 -8 -14 -26 4 -32 16 -43 28 -25 8 11 9 9 4 -8
-5 -18 -2 -25 14 -29 20 -5 20 -5 -3 -37 -19 -25 -22 -37 -15 -62 6 -21 15
-31 26 -30 10 0 19 -7 21 -16 2 -12 -2 -15 -15 -12 -15 4 -19 -1 -21 -23 -3
-38 -10 -71 -17 -82 -3 -5 -1 -13 5 -16 8 -5 8 -11 0 -20 -7 -8 -8 -20 -4 -26
4 -7 3 -9 -3 -6 -6 4 -13 -5 -16 -21 -9 -49 -17 -76 -28 -105 -11 -25 -9 -30
18 -55 16 -15 33 -35 36 -46 4 -11 13 -16 22 -12 22 8 45 -4 45 -22 0 -22 29
18 33 46 1 10 11 27 20 36 23 23 22 29 -3 16 -16 -8 -20 -8 -20 3 0 8 -10 18
-22 22 -20 6 -20 8 -5 12 10 2 14 10 11 16 -4 7 3 2 15 -11 27 -28 55 -25 59
6 4 26 10 27 36 7 11 -8 29 -13 40 -10 12 3 15 2 8 -1 -20 -9 -3 -24 29 -24
18 0 28 -4 24 -10 -8 -13 74 -13 95 -1 19 13 17 111 -5 286 -5 40 -13 140 -20
250 -12 179 -15 210 -25 213 -6 2 -6 10 -1 20 5 9 11 109 14 222 3 113 8 216
11 230 3 14 7 43 10 65 8 69 17 119 28 160 5 22 11 47 13 55 11 55 61 216 94
300 25 64 113 253 121 260 3 3 20 27 37 53 26 40 30 53 22 74 -13 36 -11 41
10 16 l18 -21 28 29 c16 17 34 28 42 25 8 -4 18 -6 21 -6 4 0 9 -57 10 -127 3
-104 7 -129 20 -141 16 -12 16 -13 0 -8 -13 4 -17 -4 -20 -39 -2 -26 2 -52 9
-62 7 -9 13 -12 13 -5 0 6 9 16 21 22 17 10 21 8 26 -10 4 -14 11 -19 21 -15
11 4 13 0 8 -17 -3 -13 -6 -27 -6 -32 0 -4 -7 -6 -15 -2 -8 3 -15 2 -15 -3 0
-13 26 -32 34 -24 3 4 -1 -8 -10 -25 -8 -18 -24 -38 -35 -46 -16 -11 -18 -20
-13 -42 4 -16 15 -35 24 -44 8 -8 14 -14 11 -13 -2 2 -10 -2 -17 -8 -10 -9
-15 -7 -20 5 -4 11 -11 13 -23 7 -17 -9 -19 -44 -10 -213 3 -65 4 -66 22 -50
11 9 21 16 23 15 24 -15 23 23 0 39 -7 5 -4 8 7 8 9 0 17 5 17 11 0 6 -7 9
-15 5 -8 -3 -15 -1 -15 4 0 6 -1 13 -2 17 -4 10 82 11 88 1 3 -4 -4 -8 -15 -8
-12 0 -21 -6 -21 -14 0 -8 -3 -22 -7 -32 -4 -11 -3 -15 4 -11 8 5 7 -1 0 -18
-7 -15 -20 -25 -33 -25 -25 0 -48 -24 -41 -42 3 -8 6 -6 6 5 1 10 5 16 11 12
6 -4 6 -15 -1 -31 -11 -30 -1 -154 13 -154 5 0 6 -4 3 -10 -9 -15 25 -133 43
-147 11 -8 13 -12 4 -13 -21 0 5 -40 26 -40 10 0 27 -7 38 -16 10 -8 14 -13 8
-10 -6 3 -17 -5 -24 -18 -11 -21 -9 -29 20 -71 68 -99 160 -170 211 -163 15 3
26 1 23 -3 -13 -22 109 -27 192 -9 27 6 76 23 109 37 77 34 197 112 189 124
-3 5 1 9 8 9 8 0 30 16 48 35 26 27 32 38 22 44 -10 6 -8 10 9 14 19 5 21 9
11 19 -16 16 -15 43 1 56 10 8 13 5 12 -15 0 -38 17 -38 40 0 44 73 85 158 81
166 -3 5 -19 14 -36 21 -16 7 -27 16 -24 21 3 5 0 9 -5 9 -6 0 -11 6 -11 14 0
14 73 31 89 21 5 -2 11 4 14 15 5 19 2 21 -35 24 -18 1 -29 19 -16 27 5 4 25
3 44 -1 28 -6 34 -5 39 11 8 23 -1 39 -21 39 -12 0 -12 -4 -4 -21 11 -20 11
-20 -21 -3 -23 11 -34 13 -37 5 -5 -14 -22 -4 -22 13 0 8 11 13 28 12 15 -1
35 7 45 17 23 23 22 25 -8 19 -14 -2 -22 -8 -19 -13 3 -5 1 -9 -4 -9 -17 0
-21 13 -10 33 9 17 8 19 -7 13 -15 -5 -16 -4 -5 9 20 24 3 30 -35 12 -19 -9
-35 -12 -35 -7 0 6 -4 10 -10 10 -5 0 -10 -7 -10 -16 0 -8 -4 -12 -10 -9 -5 3
-10 -3 -10 -14 0 -25 -3 -25 48 -7 69 25 65 -7 -9 -71 -15 -12 -29 -31 -32
-42 -4 -17 0 -19 39 -16 24 1 41 -1 38 -6 -3 -5 -14 -9 -25 -9 -11 0 -17 -4
-14 -10 3 -5 1 -10 -6 -10 -7 0 -9 -3 -6 -7 10 -9 -13 -34 -25 -27 -5 3 -4 12
3 20 9 11 8 14 -5 14 -9 0 -15 5 -13 11 1 6 -4 14 -10 16 -10 4 -17 -18 -12
-39 0 -2 -6 -19 -14 -38 -11 -25 -13 -49 -7 -85 4 -27 7 -51 6 -52 -2 -2 -15
-4 -30 -5 -24 -2 -61 -28 -40 -28 5 0 -20 -27 -55 -60 -51 -47 -72 -60 -107
-66 -80 -12 -137 19 -189 100 -31 49 -85 189 -85 221 0 8 -9 11 -22 9 l-23 -5
23 12 c13 7 20 19 18 28 -13 45 -19 213 -19 564 0 213 -4 411 -9 440 -22 122
-90 217 -192 267 -81 39 -158 51 -227 33z m71 -43 c-20 -13 -33 -13 -25 0 3 6
14 10 23 10 15 0 15 -2 2 -10z m10 -60 c0 -5 -2 -10 -4 -10 -3 0 -8 5 -11 10
-3 6 -1 10 4 10 6 0 11 -4 11 -10z m-80 -31 c0 -5 -11 -9 -25 -9 -28 0 -34 16
-7 23 20 4 32 -1 32 -14z m4 -36 c5 -12 4 -13 -7 -5 -17 15 -27 6 -27 -25 0
-12 -5 -23 -11 -23 -5 0 -8 4 -4 9 3 5 1 12 -5 16 -6 4 -8 11 -5 16 4 5 1 9
-4 9 -6 0 -11 3 -11 8 0 4 15 8 34 9 24 2 36 -2 40 -14z m31 -33 c3 -5 3 -10
-2 -11 -4 0 -16 -2 -25 -4 -10 -2 -18 0 -18 4 0 21 34 29 45 11z m155 -15 c-7
-9 -15 -13 -18 -10 -3 2 1 11 8 20 7 9 15 13 18 10 3 -2 -1 -11 -8 -20z m-33
-47 c-3 -8 -6 -5 -6 6 -1 11 2 17 5 13 3 -3 4 -12 1 -19z m18 -38 c3 -5 1 -10
-4 -10 -6 0 -11 5 -11 10 0 6 2 10 4 10 3 0 8 -4 11 -10z m55 -25 c19 -23 8
-25 -14 -4 -11 11 -15 19 -9 19 6 0 16 -7 23 -15z m-472 -17 c-6 -18 -28 -21
-28 -4 0 9 7 16 16 16 9 0 14 -5 12 -12z m102 2 c0 -5 -2 -10 -4 -10 -3 0 -8
5 -11 10 -3 6 -1 10 4 10 6 0 11 -4 11 -10z m540 -5 c0 -9 -6 -12 -16 -8 -13
5 -13 7 -2 14 17 11 18 11 18 -6z m-240 -35 c0 -5 10 -11 23 -11 l22 -2 -22
-4 c-15 -3 -23 -12 -23 -25 0 -11 -5 -18 -11 -16 -6 2 -10 7 -10 11 1 4 1 18
1 32 0 14 5 25 10 25 6 0 10 -4 10 -10z m-340 -10 c-18 -12 -30 -13 -30 -2 0
4 10 9 22 9 18 2 20 0 8 -7z m400 -30 c-8 -5 -19 -10 -25 -10 -5 0 -3 5 5 10
8 5 20 10 25 10 6 0 3 -5 -5 -10z m38 -58 c2 -7 -3 -12 -12 -12 -9 0 -16 7
-16 16 0 17 22 14 28 -4z m-176 -14 c-7 -7 -12 -8 -12 -2 0 14 12 26 19 19 2
-3 -1 -11 -7 -17z m328 8 c0 -8 -4 -18 -10 -21 -5 -3 -10 3 -10 14 0 12 5 21
10 21 6 0 10 -6 10 -14z m-740 -16 c0 -5 -2 -10 -4 -10 -3 0 -8 5 -11 10 -3 6
-1 10 4 10 6 0 11 -4 11 -10z m53 -42 c-2 -5 -13 -8 -24 -8 -10 0 -19 -4 -19
-10 0 -5 -8 -10 -17 -9 -11 0 -13 3 -5 6 6 2 12 9 12 14 0 6 -4 7 -10 4 -5 -3
-10 0 -10 8 0 10 7 13 19 10 10 -3 22 0 25 6 5 8 11 7 20 -2 8 -6 12 -15 9
-19z m361 1 c-21 -24 -29 -18 -14 10 6 12 16 19 21 15 6 -4 4 -13 -7 -25z
m206 21 c0 -5 -2 -10 -4 -10 -3 0 -8 5 -11 10 -3 6 -1 10 4 10 6 0 11 -4 11
-10z m-554 -45 c-19 -15 -46 -20 -46 -10 0 6 40 24 55 24 6 0 1 -6 -9 -14z
m344 -31 c0 -18 -36 -18 -43 0 -6 16 10 26 31 18 6 -2 12 -10 12 -18z m40 6
c0 -5 -2 -10 -4 -10 -3 0 -8 5 -11 10 -3 6 -1 10 4 10 6 0 11 -4 11 -10z
m-416 -34 c-3 -9 -12 -16 -20 -16 -20 0 -17 28 4 32 22 5 24 4 16 -16z m604
-11 c-3 -3 -9 2 -12 12 -6 14 -5 15 5 6 7 -7 10 -15 7 -18z m-676 -37 c-9 -9
-12 -7 -12 12 0 19 3 21 12 12 9 -9 9 -15 0 -24z m664 -35 c-10 -11 -36 -12
-36 -2 0 5 10 9 22 9 12 0 18 -3 14 -7z m-809 -99 c-3 -3 -12 -4 -19 -1 -8 3
-5 6 6 6 11 1 17 -2 13 -5z m643 2 c0 -11 -19 -15 -25 -6 -3 5 1 10 9 10 9 0
16 -2 16 -4z m200 -6 c0 -5 -5 -10 -11 -10 -5 0 -7 5 -4 10 3 6 8 10 11 10 2
0 4 -4 4 -10z m43 -150 c3 -10 2 -20 -3 -22 -7 -3 -22 -118 -15 -118 2 0 13
10 25 22 11 12 20 17 20 10 0 -16 -41 -42 -65 -42 -16 0 -17 2 -5 10 12 8 13
13 3 29 -13 21 -7 58 14 83 20 23 9 36 -23 30 -19 -3 -25 -1 -20 7 12 19 63
13 69 -9z m-1108 -85 c0 -38 -2 -40 -25 -25 -13 8 -13 10 -1 10 11 0 10 4 -4
14 -16 12 -17 16 -6 29 19 24 36 11 36 -28z m1035 15 c0 -5 -5 -10 -11 -10 -5
0 -7 5 -4 10 3 6 8 10 11 10 2 0 4 -4 4 -10z m10 -40 c0 -5 -4 -10 -10 -10 -5
0 -10 5 -10 10 0 6 5 10 10 10 6 0 10 -4 10 -10z m-6 -42 c-3 -4 -15 -8 -27
-8 -15 0 -18 3 -9 8 17 11 43 11 36 0z m102 -27 c0 -13 -6 -17 -20 -13 -18 5
-18 6 -1 19 11 7 19 13 20 13 0 0 1 -8 1 -19z m-51 -31 c-3 -5 -10 -10 -16
-10 -5 0 -9 5 -9 10 0 6 7 10 16 10 8 0 12 -4 9 -10z m-20 -66 c0 -37 -3 -44
-17 -41 -9 3 -19 0 -21 -7 -4 -12 -26 25 -32 55 -5 25 12 25 20 0 8 -26 31
-17 39 15 9 35 12 30 11 -22z m-180 -4 c3 -5 3 -10 -2 -10 -4 0 -18 -3 -30 -6
-13 -4 -23 -2 -23 4 0 9 15 16 42 21 4 0 10 -3 13 -9z m-980 -10 c-3 -5 -11
-10 -16 -10 -6 0 -7 5 -4 10 3 6 11 10 16 10 6 0 7 -4 4 -10z m1208 -7 c-7 -2
-19 -2 -25 0 -7 3 -2 5 12 5 14 0 19 -2 13 -5z m-260 -37 c-6 -14 -16 -10 -32
14 l-16 25 25 -16 c14 -9 24 -19 23 -23z m179 -35 c0 -9 0 -26 -1 -37 -1 -14
6 -23 19 -27 17 -4 22 0 27 26 5 26 7 28 13 12 8 -24 -19 -67 -38 -60 -7 3
-10 0 -7 -5 3 -6 2 -10 -4 -10 -5 0 -11 5 -13 11 -3 8 -10 6 -21 -5 -16 -16
-17 -16 -17 3 0 11 8 25 18 30 15 9 14 10 -7 11 -18 0 -21 3 -13 13 11 13 12
17 12 47 0 24 29 16 32 -9z m86 -12 c-3 -8 -7 -3 -11 10 -4 17 -3 21 5 13 5
-5 8 -16 6 -23z m604 -27 c-7 -2 -10 -8 -6 -13 3 -5 15 -3 27 6 25 17 47 20
47 4 0 -5 -4 -8 -9 -4 -5 3 -15 -1 -23 -8 -22 -22 -46 -27 -52 -11 -11 29 -7
44 11 37 11 -4 13 -8 5 -11z m112 -59 c13 -7 12 -12 -4 -33 -15 -19 -20 -21
-20 -9 0 9 -7 22 -15 29 -31 26 -2 36 39 13z m-68 -8 c4 -8 10 -12 15 -9 5 3
9 1 9 -4 0 -20 -29 -21 -35 -1 -4 10 -11 17 -16 13 -5 -3 -7 -9 -4 -14 3 -4
-4 -10 -15 -13 -27 -7 -25 8 2 27 28 20 37 20 44 1z m-617 -55 c0 -9 -4 -8 -9
5 -5 11 -9 27 -9 35 0 9 4 8 9 -5 5 -11 9 -27 9 -35z m-949 30 c0 -5 -5 -10
-11 -10 -5 0 -7 5 -4 10 3 6 8 10 11 10 2 0 4 -4 4 -10z m816 -15 c-2 -7 1
-18 7 -25 9 -10 9 -11 -3 -8 -8 3 -16 17 -18 32 -2 19 0 26 8 21 6 -4 9 -13 6
-20z m54 -7 c0 -6 -6 -5 -15 2 -8 7 -15 14 -15 16 0 2 7 1 15 -2 8 -4 15 -11
15 -16z m670 -7 c0 -5 -8 -12 -17 -15 -14 -6 -15 -9 -4 -15 10 -6 10 -10 1
-16 -18 -11 -24 3 -12 30 11 24 32 35 32 16z m56 -7 c-3 -9 -6 -20 -6 -24 0
-5 -10 -7 -21 -5 -25 5 -38 15 -21 15 7 0 12 7 12 15 0 9 9 15 21 15 15 0 19
-4 15 -16z m-858 -11 c2 -8 -5 -13 -17 -13 -21 0 -35 13 -24 24 10 10 36 3 41
-11z m202 -10 c0 -5 -5 -15 -10 -23 -8 -12 -10 -11 -10 8 0 12 5 22 10 22 6 0
10 -3 10 -7z m-1191 -29 c8 -7 -12 -24 -31 -24 -16 0 -18 3 -9 14 9 11 9 15
-1 20 -7 3 -2 3 12 0 14 -4 27 -8 29 -10z m1752 -11 c0 -5 2 -18 5 -30 2 -12
-2 -23 -11 -27 -12 -4 -15 3 -15 29 0 19 5 35 10 35 6 0 10 -3 11 -7z m-725
-40 c-10 -10 -19 5 -10 18 6 11 8 11 12 0 2 -7 1 -15 -2 -18z m-769 -20 c-3
-3 -10 -2 -16 2 -7 4 -7 10 2 20 10 11 13 11 15 -2 2 -8 1 -17 -1 -20z m-223
-27 c-3 -9 -10 -16 -15 -16 -6 0 -5 9 1 21 13 24 24 20 14 -5z m1176 -6 c0 -5
-5 -10 -11 -10 -5 0 -7 5 -4 10 3 6 8 10 11 10 2 0 4 -4 4 -10z m470 -10 c0
-5 12 -10 27 -10 36 0 26 -6 -22 -13 -24 -4 -34 -3 -26 2 7 5 10 14 7 20 -4 6
-2 11 3 11 6 0 11 -4 11 -10z m-460 -30 c-8 -5 -11 -10 -5 -10 5 0 4 -5 -2
-11 -6 -6 -9 -18 -6 -25 3 -8 -1 -14 -10 -14 -15 0 -27 35 -19 58 2 7 16 12
30 12 21 0 24 -2 12 -10z m-1123 -22 c-3 -8 -6 -5 -6 6 -1 11 2 17 5 13 3 -3
4 -12 1 -19z m-39 -40 c-1 -15 -8 -28 -14 -28 -8 0 -10 9 -7 23 5 18 3 20 -8
10 -7 -7 -19 -13 -26 -13 -18 0 -5 28 15 32 36 8 42 4 40 -24z m-73 12 c-3 -5
-12 -10 -18 -10 -7 0 -6 4 3 10 19 12 23 12 15 0z m299 -2 c-3 -4 -12 -8 -20
-8 -8 0 -13 4 -10 8 3 5 12 9 20 9 8 0 13 -4 10 -9z m909 -35 c-7 -2 -19 -2
-25 0 -7 3 -2 5 12 5 14 0 19 -2 13 -5z m-1113 -23 c-8 -5 -24 -10 -35 -10
-17 0 -17 2 -5 10 8 5 24 10 35 10 17 0 17 -2 5 -10z m-80 -20 c0 -5 -2 -10
-4 -10 -3 0 -8 5 -11 10 -3 6 -1 10 4 10 6 0 11 -4 11 -10z m1287 -20 c1 -11
-2 -20 -8 -20 -10 0 -12 23 -2 33 9 9 9 10 10 -13z m-1140 -52 c-3 -8 -6 -5
-6 6 -1 11 2 17 5 13 3 -3 4 -12 1 -19z m123 -12 c0 -3 -4 -8 -10 -11 -5 -3
-10 -1 -10 4 0 6 5 11 10 11 6 0 10 -2 10 -4z m20 -57 c0 -5 -4 -9 -10 -9 -5
0 -10 7 -10 16 0 8 5 12 10 9 6 -3 10 -10 10 -16z m-220 7 c0 -2 -8 -10 -17
-17 -16 -13 -17 -12 -4 4 13 16 21 21 21 13z m70 -56 c0 -12 -50 -33 -58 -25
-3 3 0 5 7 5 8 0 11 7 7 15 -4 11 1 15 19 15 14 0 25 -5 25 -10z m-40 -46 c0
-8 -24 -29 -38 -31 -19 -4 -14 25 6 30 27 7 32 7 32 1z m170 -71 c-1 -18 -19
-35 -29 -28 -9 5 -9 10 0 21 12 15 29 19 29 7z m-106 -9 c12 -5 13 -9 3 -25
-6 -10 -15 -19 -20 -19 -4 0 -5 5 -2 10 3 6 -3 10 -14 10 -11 0 -23 5 -27 12
-4 6 -3 8 2 5 6 -3 16 -2 24 4 18 11 15 10 34 3z m146 -84 c0 -5 -5 -10 -11
-10 -5 0 -7 5 -4 10 3 6 8 10 11 10 2 0 4 -4 4 -10z m-34 -25 c0 -14 -7 -25
-13 -25 -14 0 -16 10 -7 34 9 25 22 19 20 -9z m-186 -39 c0 -3 -4 -8 -10 -11
-5 -3 -10 -1 -10 4 0 6 5 11 10 11 6 0 10 -2 10 -4z m201 -25 c1 -9 1 -22 0
-29 -2 -10 4 -12 20 -7 19 6 20 5 8 -8 -12 -13 -17 -12 -40 11 -15 15 -24 33
-22 43 6 21 33 14 34 -10z m-138 -26 c-3 -10 -20 -21 -65 -43 -5 -2 -8 1 -8 7
0 6 12 14 26 17 20 5 25 12 21 29 -3 20 -1 22 14 12 9 -6 15 -16 12 -22z m22
-84 c3 -5 1 -12 -5 -16 -5 -3 -10 1 -10 9 0 18 6 21 15 7z m-155 -151 c0 -5
-2 -10 -4 -10 -3 0 -8 5 -11 10 -3 6 -1 10 4 10 6 0 11 -4 11 -10z"/>
<path d="M4809 5549 c-59 -9 -95 -26 -269 -129 -101 -60 -163 -104 -207 -148
-148 -149 -209 -347 -169 -547 8 -44 17 -91 20 -105 27 -158 80 -401 97 -439
53 -123 189 -177 326 -128 63 22 346 194 396 241 161 148 232 359 190 566 -8
41 -16 85 -19 98 -2 12 -6 32 -8 45 -16 82 -47 242 -56 292 -6 33 -16 74 -22
90 -46 120 -152 183 -279 164z m23 -306 c24 -28 35 -55 42 -101 3 -24 7 -46
10 -50 2 -4 7 -29 10 -57 4 -27 11 -68 16 -90 5 -22 11 -53 14 -70 3 -16 14
-75 25 -129 16 -88 17 -105 5 -145 -14 -49 -63 -107 -110 -131 -16 -8 -70 -40
-119 -71 -50 -30 -104 -60 -121 -66 -41 -14 -87 5 -102 43 -9 25 -67 307 -79
389 -2 17 -10 56 -17 87 -7 32 -12 75 -11 96 3 45 44 120 77 142 13 8 81 49
153 92 136 82 178 94 207 61z"/>
<path d="M12098 5512 c6 -2 10 -8 6 -13 -3 -5 6 -9 20 -9 15 0 26 6 26 13 0 9
-12 14 -32 14 -18 0 -27 -2 -20 -5z"/>
<path d="M12163 5496 c0 -8 9 -17 19 -19 21 -6 23 4 6 21 -16 16 -25 15 -25
-2z"/>
<path d="M12108 5458 c-26 -9 -28 -14 -28 -62 0 -29 3 -55 6 -58 3 -4 17 0 32
8 16 8 28 10 30 4 2 -6 8 -10 13 -10 6 0 6 7 1 18 -5 9 -7 23 -5 30 3 7 0 18
-6 25 -7 9 -5 16 10 25 10 7 19 16 19 20 0 10 -41 11 -72 0z m9 -24 c-3 -3
-12 -4 -19 -1 -8 3 -5 6 6 6 11 1 17 -2 13 -5z"/>
<path d="M12187 5410 c-3 -11 0 -26 6 -33 21 -21 36 -76 25 -83 -6 -4 -17 0
-23 10 -27 37 -70 -20 -59 -79 3 -19 1 -35 -5 -39 -6 -4 -11 -16 -11 -27 0
-12 4 -17 11 -14 6 4 16 -1 23 -10 12 -16 13 -16 29 -1 9 10 21 25 26 34 5 9
13 14 17 10 4 -4 -1 -19 -10 -33 -9 -14 -14 -25 -11 -25 2 0 1 -10 -4 -23 -6
-16 -4 -29 5 -42 14 -19 15 -19 20 3 4 12 10 22 14 22 4 0 6 30 6 66 -1 36 2
68 6 70 4 3 3 15 -2 27 -5 12 -12 49 -16 82 -4 33 -8 63 -10 68 -1 4 -2 14 -3
22 -2 22 -28 18 -34 -5z m26 -130 c6 0 2 -7 -9 -15 -11 -8 -14 -15 -6 -15 15
0 16 -30 1 -30 -5 0 -8 -4 -5 -9 4 -5 -3 -7 -14 -4 -16 4 -19 10 -13 27 3 11
7 29 7 39 0 11 6 15 14 12 7 -3 19 -5 25 -5z"/>
<path d="M11077 5352 c1 -8 3 -16 3 -18 0 -2 5 -4 10 -4 6 0 10 7 10 16 0 8
-4 13 -9 10 -5 -4 -11 -3 -14 1 -2 5 -2 2 0 -5z"/>
<path d="M9360 5234 c-18 -5 -37 -45 -45 -94 -10 -69 -13 -150 -5 -155 5 -3 5
-19 0 -36 -7 -23 -6 -35 5 -46 8 -8 15 -22 15 -31 -1 -15 -3 -14 -15 2 -15 19
-15 19 -15 -2 0 -12 5 -22 10 -22 6 0 8 -11 4 -27 -6 -22 -4 -25 10 -20 11 5
16 1 16 -13 0 -11 4 -20 9 -20 5 0 -3 -12 -18 -27 -26 -27 -27 -32 -24 -113 1
-47 3 -123 4 -170 0 -47 5 -93 11 -104 7 -12 7 -21 0 -25 -5 -3 -10 -70 -11
-154 -1 -118 1 -147 11 -141 10 6 11 4 1 -7 -7 -7 -13 -23 -13 -36 0 -13 6
-23 13 -23 9 0 9 -2 0 -8 -6 -4 -14 -29 -17 -56 -5 -41 -3 -53 14 -68 25 -23
33 -23 21 1 -9 16 -6 19 19 23 23 4 27 2 19 -9 -9 -10 -5 -15 16 -23 14 -5 30
-10 35 -10 5 0 -5 -13 -21 -30 -17 -16 -28 -34 -24 -40 3 -5 2 -10 -4 -10 -6
0 -8 -7 -5 -15 4 -8 17 -15 31 -15 13 0 21 -4 18 -10 -3 -5 -19 -9 -35 -7 -16
1 -29 -2 -30 -8 -1 -14 51 -16 67 -3 8 6 16 8 20 4 3 -3 1 -6 -6 -6 -7 0 -10
-4 -7 -8 8 -14 -37 -48 -73 -55 l-33 -7 16 25 c9 14 12 25 7 25 -5 0 -16 3
-25 6 -13 5 -16 -1 -16 -29 0 -37 -14 -57 -23 -35 -3 7 -6 -3 -7 -22 -2 -61
-41 -297 -55 -331 -4 -11 0 -18 14 -22 14 -3 19 -10 15 -21 -7 -18 -24 -22
-24 -6 0 24 -19 7 -25 -22 -4 -18 -23 -67 -42 -108 -39 -82 -45 -109 -31 -127
7 -8 3 -10 -11 -6 -17 4 -21 1 -21 -20 0 -14 -5 -29 -12 -33 -7 -5 -9 -2 -5 9
9 23 -21 26 -61 6 -18 -10 -40 -16 -50 -14 -9 2 -23 4 -29 4 -18 1 -93 71 -93
86 0 19 -30 27 -48 13 -13 -11 -15 -10 -9 5 4 11 2 17 -8 17 -17 0 -19 9 -5
30 8 13 10 13 10 -1 0 -16 28 -34 37 -25 3 2 -1 15 -8 28 -7 12 -14 25 -14 28
-1 3 -5 17 -9 31 -9 32 -14 59 -15 81 -1 14 -6 16 -23 9 -13 -4 -29 -6 -35 -4
-7 3 -13 0 -13 -5 0 -6 6 -13 13 -15 9 -4 9 -6 -1 -6 -7 -1 -10 -6 -6 -13 5
-8 2 -9 -10 -5 -10 4 -22 7 -28 7 -18 0 39 50 61 55 35 7 39 13 31 50 -4 19
-5 35 -2 35 3 0 -3 9 -12 19 -11 12 -25 17 -39 14 l-22 -5 20 19 c12 10 27 26
34 36 12 15 11 17 -5 14 -11 -1 -25 -7 -33 -11 -10 -6 -12 -5 -7 2 4 7 2 12
-4 12 -6 0 -9 4 -6 9 3 4 17 6 31 3 20 -3 25 0 25 17 0 12 -4 19 -10 16 -5 -3
-10 -1 -10 4 0 6 5 11 11 11 8 0 9 19 4 62 -7 58 -8 377 -1 565 3 101 -9 222
-28 277 -37 105 -38 108 -47 94 -6 -9 -9 -5 -9 13 0 14 -12 42 -27 61 -33 42
-106 97 -97 74 3 -9 1 -16 -5 -16 -6 0 -16 11 -20 24 -5 13 -17 26 -27 30 -15
6 -16 1 -11 -40 4 -40 2 -47 -14 -51 -10 -3 -19 -12 -19 -19 0 -8 -4 -14 -10
-14 -5 0 -10 4 -10 8 0 5 -11 15 -25 22 -21 11 -23 15 -9 24 11 9 13 20 8 40
-6 24 -9 26 -21 14 -32 -33 -57 -351 -56 -718 1 -107 3 -224 6 -260 3 -36 6
-84 6 -107 1 -36 4 -43 20 -43 18 0 19 -2 5 -27 -13 -25 -13 -96 1 -158 1 -5
5 -28 9 -50 43 -241 104 -381 211 -490 59 -60 80 -74 134 -92 116 -38 242 -12
369 74 49 34 64 53 42 53 -5 0 -10 7 -10 15 0 18 5 18 29 5 15 -8 26 -1 58 38
108 130 199 350 228 552 9 63 16 68 36 28 48 -94 197 -210 248 -193 13 4 21 2
21 -5 0 -6 4 -9 10 -5 5 3 7 12 3 20 -6 17 5 19 27 5 10 -6 11 -10 3 -10 -7 0
-13 -4 -13 -9 0 -19 42 -6 60 19 33 46 30 79 -6 72 -19 -3 -25 -1 -20 7 4 7
22 11 38 9 18 -2 33 2 35 10 6 15 -40 17 -67 2 -14 -7 -17 -6 -16 8 1 20 44
51 81 58 23 4 24 3 13 -16 -11 -17 -10 -22 2 -30 25 -16 30 -12 30 28 0 31 -6
40 -35 60 -39 25 -80 85 -102 149 -8 24 -24 48 -34 54 -11 5 -17 15 -13 21 4
7 9 6 15 -3 7 -11 9 -10 9 4 0 13 -5 16 -24 11 -25 -6 -44 10 -26 21 6 4 8 11
5 16 -10 15 2 10 21 -8 17 -17 17 -17 11 7 -4 14 -7 33 -7 43 0 10 -5 15 -11
12 -6 -4 -8 -13 -5 -21 3 -8 -1 -14 -9 -14 -21 0 -18 26 5 43 13 9 18 22 15
38 -2 13 -6 72 -9 131 -3 59 -10 117 -16 127 -12 24 -13 31 -1 31 5 0 11 -8
13 -17 2 -10 4 21 3 69 0 63 -4 89 -13 93 -11 4 -11 8 1 20 13 13 15 55 13
277 -3 237 -6 270 -25 338 -31 105 -66 165 -138 237 -48 48 -73 65 -114 77
-29 9 -55 15 -58 15 -3 -1 -13 -3 -21 -5z m116 -207 c4 -4 7 -22 8 -41 1 -27
-3 -34 -16 -33 -12 1 -14 5 -7 13 6 8 6 13 0 16 -5 1 -13 15 -16 30 -5 21 -3
26 9 24 8 -1 18 -5 22 -9z m-96 -127 c0 -5 -7 -10 -16 -10 -8 0 -12 5 -9 10 3
6 10 10 16 10 5 0 9 -4 9 -10z m10 -120 c0 -5 -5 -10 -11 -10 -5 0 -7 5 -4 10
3 6 8 10 11 10 2 0 4 -4 4 -10z m0 -70 c0 -5 -5 -10 -11 -10 -5 0 -7 5 -4 10
3 6 8 10 11 10 2 0 4 -4 4 -10z m10 -76 c0 -8 -5 -12 -10 -9 -6 4 -8 11 -5 16
9 14 15 11 15 -7z m5 -45 c12 -19 -5 -23 -22 -6 -16 16 -16 17 -1 17 9 0 20
-5 23 -11z m-1015 -64 c0 -8 5 -15 11 -15 8 0 8 -4 -1 -15 -9 -11 -17 -12 -32
-4 -15 8 -17 13 -8 19 7 4 9 13 6 19 -4 6 0 11 8 11 9 0 16 -7 16 -15z m1026
-63 c-21 -5 -22 -4 -30 33 l-6 30 26 -30 c24 -26 25 -30 10 -33z m-949 16 c-3
-8 -6 -5 -6 6 -1 11 2 17 5 13 3 -3 4 -12 1 -19z m1229 -66 c-4 -3 -12 0 -19
8 -9 10 -9 11 1 6 7 -5 12 -1 13 11 1 17 2 17 6 0 3 -10 2 -21 -1 -25z m-164
-4 c-9 -9 -12 -7 -12 12 0 19 3 21 12 12 9 -9 9 -15 0 -24z m-848 -11 c4 -19
3 -26 -4 -22 -5 3 -10 18 -10 32 0 32 5 28 14 -10z m789 -24 c-24 -18 -37 -4
-17 18 13 15 19 17 26 7 4 -8 1 -18 -9 -25z m-46 21 c-3 -3 -12 -4 -19 -1 -8
3 -5 6 6 6 11 1 17 -2 13 -5z m-813 -20 c4 -11 1 -14 -11 -12 -9 2 -18 9 -21
16 -6 18 25 15 32 -4z m-74 -34 c0 -5 -5 -10 -11 -10 -5 0 -7 5 -4 10 3 6 8
10 11 10 2 0 4 -4 4 -10z m910 -10 c0 -5 -5 -10 -11 -10 -5 0 -7 5 -4 10 3 6
8 10 11 10 2 0 4 -4 4 -10z m87 -12 c-3 -8 -6 -5 -6 6 -1 11 2 17 5 13 3 -3 4
-12 1 -19z m-42 3 c-17 -7 -17 -9 -3 -17 10 -6 13 -16 8 -29 -7 -19 -7 -19
-18 1 -8 16 -18 20 -39 17 -21 -3 -24 -2 -13 6 8 5 17 8 21 5 4 -2 12 3 19 11
7 8 20 15 29 14 12 0 12 -2 -4 -8z m-909 -46 c12 -9 14 -14 6 -15 -7 0 -10 -5
-7 -11 4 -6 -2 -5 -14 3 -20 12 -29 38 -13 38 5 0 17 -7 28 -15z m929 -47
c-11 -7 -27 -13 -35 -14 -8 -1 -19 -2 -25 -4 -5 -1 -17 -1 -25 0 -18 2 57 28
85 29 l20 0 -20 -11z m-12 -69 c-8 -29 -13 -23 -13 14 0 22 3 28 9 18 5 -7 6
-22 4 -32z m-86 -24 c6 -19 7 -33 2 -29 -5 3 -9 0 -9 -5 0 -6 -5 -11 -11 -11
-8 0 -8 4 0 14 8 9 8 21 1 40 -5 14 -6 26 -1 26 4 0 12 -16 18 -35z m170 3
c-3 -8 -6 -5 -6 6 -1 11 2 17 5 13 3 -3 4 -12 1 -19z m-137 -62 c0 -2 -7 -6
-15 -10 -8 -3 -15 -1 -15 4 0 6 7 10 15 10 8 0 15 -2 15 -4z m84 -21 c15 -14
31 -25 37 -25 18 0 8 -28 -12 -33 -17 -5 -20 -10 -14 -29 4 -13 8 -42 10 -65
1 -23 6 -46 9 -51 4 -6 2 -13 -2 -16 -9 -6 -26 23 -37 63 -5 16 -4 21 4 17 6
-4 11 0 11 9 0 10 -7 15 -17 13 -11 -2 -17 -11 -15 -21 2 -9 -1 -17 -6 -17 -5
0 -12 -11 -14 -25 -4 -17 -1 -25 9 -25 8 0 13 -7 11 -16 -2 -8 -7 -14 -13 -14
-5 1 -9 6 -7 11 2 10 -9 12 -50 9 -16 -1 -28 3 -28 9 0 6 5 11 11 11 7 0 9 10
7 24 -3 14 0 27 6 29 8 3 10 -7 8 -29 -3 -28 -1 -33 11 -28 19 7 32 37 18 42
-15 5 -14 39 2 45 6 3 0 6 -15 6 -23 1 -28 6 -28 25 0 20 5 23 33 23 66 -1 88
3 81 14 -3 6 -15 9 -25 6 -11 -3 -19 -2 -20 1 -5 34 -5 62 1 62 4 0 19 -11 34
-25z m-114 -25 c-15 -11 -26 -15 -29 -8 -4 12 17 28 39 28 10 0 7 -7 -10 -20z
m220 -30 c0 -5 -2 -10 -4 -10 -3 0 -8 5 -11 10 -3 6 -1 10 4 10 6 0 11 -4 11
-10z m-220 -52 c0 -4 -4 -8 -9 -8 -6 0 -12 4 -15 8 -3 5 1 9 9 9 8 0 15 -4 15
-9z m-88 -70 c-20 -20 -20 -20 -9 16 9 28 14 32 20 19 7 -10 3 -21 -11 -35z
m378 25 c-1 -18 -19 -35 -29 -28 -9 5 -9 10 0 21 12 15 29 19 29 7z m-96 -12
c3 -5 -1 -14 -9 -21 -8 -7 -12 -16 -9 -21 3 -5 3 -9 -1 -9 -8 0 -24 44 -18 53
6 10 31 9 37 -2z m-138 -118 c-11 -11 -17 4 -9 23 7 18 8 18 11 1 2 -10 1 -21
-2 -24z m74 3 c0 -3 -4 -8 -10 -11 -5 -3 -10 -1 -10 4 0 6 5 11 10 11 6 0 10
-2 10 -4z m-20 -30 c0 -3 -4 -8 -10 -11 -5 -3 -10 -1 -10 4 0 6 5 11 10 11 6
0 10 -2 10 -4z m57 -61 c-12 -13 -39 -26 -59 -29 -32 -5 -38 -3 -37 12 0 9 3
12 5 5 6 -13 60 1 79 20 7 7 7 8 0 4 -6 -3 -11 3 -11 13 0 15 4 16 22 8 l22
-11 -21 -22z m-947 0 c-14 -17 -40 -20 -40 -6 0 5 10 12 23 14 12 2 24 5 26 6
2 0 -2 -6 -9 -14z m-207 -30 c-3 -9 -8 -14 -10 -11 -3 3 -2 9 2 15 9 16 15 13
8 -4z m171 -19 c-15 -12 -17 -17 -6 -27 6 -7 12 -23 12 -36 0 -14 6 -23 15
-23 8 0 15 -4 15 -10 0 -15 -26 -12 -40 5 -21 25 -29 17 -19 -17 6 -22 6 -34
-1 -36 -5 -2 -10 -10 -10 -17 0 -18 -54 -11 -86 10 -22 14 -36 33 -15 20 5 -3
12 -1 16 5 3 5 15 10 26 10 10 0 19 5 19 10 0 22 2 25 22 33 12 4 18 13 15 22
-4 9 -1 12 9 8 21 -8 17 15 -6 29 -30 19 -24 28 17 28 34 0 36 -1 17 -14z m51
-6 c3 -5 1 -10 -4 -10 -6 0 -11 5 -11 10 0 6 2 10 4 10 3 0 8 -4 11 -10z m43
-43 c2 -12 -3 -17 -17 -17 -15 0 -21 6 -21 21 0 25 33 22 38 -4z m-318 -47 c0
-5 -5 -10 -11 -10 -5 0 -7 5 -4 10 3 6 8 10 11 10 2 0 4 -4 4 -10z m1160 -5
c0 -12 -19 -12 -23 0 -4 9 -1 12 9 8 7 -3 14 -7 14 -8z m-810 -15 c0 -5 -8
-10 -17 -10 -15 0 -16 2 -3 10 19 12 20 12 20 0z m976 -15 c1 -8 -2 -13 -7 -9
-5 3 -9 12 -9 21 0 19 13 9 16 -12z m-1049 -9 c-14 -21 -14 -25 -2 -30 23 -9
18 -32 -10 -44 -35 -16 -50 -16 -37 1 5 6 13 27 17 44 3 18 14 37 23 43 25 14
26 12 9 -14z m-187 -26 c9 -6 4 -13 -17 -24 -39 -19 -47 -11 -26 25 11 17 20
24 24 18 4 -6 12 -15 19 -19z m1220 -90 c0 -9 -14 -14 -33 -11 -4 1 -5 -11 -3
-25 4 -20 2 -24 -10 -20 -9 3 -21 6 -27 6 -6 0 3 14 21 30 34 31 52 38 52 20z
m39 -7 c0 -11 -3 -13 -6 -5 -2 6 -9 10 -14 6 -5 -3 -9 0 -9 5 0 6 7 11 15 11
8 0 15 -8 14 -17z m-1099 -2 c0 -5 -7 -12 -16 -15 -14 -5 -15 -4 -4 9 14 17
20 19 20 6z m-45 -30 c-3 -6 -11 -11 -17 -11 -6 0 -6 6 2 15 14 17 26 13 15
-4z m1125 -35 c0 -3 -4 -8 -10 -11 -5 -3 -10 -1 -10 4 0 6 5 11 10 11 6 0 10
-2 10 -4z m-10 -30 c0 -3 -4 -8 -10 -11 -5 -3 -10 -1 -10 4 0 6 5 11 10 11 6
0 10 -2 10 -4z m-1015 -15 c3 -5 1 -12 -5 -16 -5 -3 -10 1 -10 9 0 18 6 21 15
7z m-116 -93 c10 -12 16 -30 13 -40 -4 -17 -6 -18 -22 -3 -11 10 -16 24 -12
37 4 17 2 19 -18 13 -15 -5 -20 -4 -16 4 11 18 36 13 55 -11z m21 -77 c0 -17
-12 -41 -20 -41 -4 0 -7 11 -6 25 1 23 26 38 26 16z m170 5 c0 -3 -4 -8 -10
-11 -5 -3 -10 -1 -10 4 0 6 5 11 10 11 6 0 10 -2 10 -4z m-215 -36 c3 -5 1
-10 -4 -10 -6 0 -11 5 -11 10 0 6 2 10 4 10 3 0 8 -4 11 -10z m655 -1 c0 -5
-4 -8 -9 -5 -5 4 -12 0 -14 -6 -3 -8 -6 -6 -6 5 -1 9 6 17 14 17 8 0 15 -5 15
-11z m-467 -52 c-3 -5 0 -13 7 -17 14 -9 4 -70 -12 -70 -6 0 -8 11 -4 25 6 23
4 26 -20 23 -30 -3 -39 9 -24 32 9 13 11 13 20 0 8 -13 14 -8 12 11 -1 3 5 6
13 6 8 0 11 -5 8 -10z m477 -7 c0 -5 -4 -10 -10 -10 -5 0 -10 5 -10 10 0 6 5
10 10 10 6 0 10 -4 10 -10z m-600 -19 c0 -6 -4 -12 -9 -15 -5 -3 -7 -16 -4
-29 4 -20 4 -20 -9 3 -8 14 -13 31 -10 38 5 14 32 17 32 3z m208 -29 c2 -7 -6
-12 -17 -12 -21 0 -27 11 -14 24 9 9 26 2 31 -12z m50 -42 c-10 -6 -14 -18
-11 -29 4 -15 0 -19 -14 -17 -10 2 -24 -1 -31 -7 -15 -12 -17 -10 -26 20 -6
19 -2 24 26 32 18 5 42 9 53 10 18 0 18 -1 3 -9z m287 -20 c-25 -9 -36 -4 -29
15 5 12 10 12 27 3 21 -11 21 -11 2 -18z m-525 -4 c0 -2 -7 -7 -16 -10 -8 -3
-12 -2 -9 4 6 10 25 14 25 6z m116 -32 c-5 -13 -2 -15 14 -11 11 3 18 1 15 -3
-3 -5 1 -15 9 -23 8 -8 12 -17 9 -21 -10 -10 -45 -7 -38 3 3 5 -4 12 -15 16
-11 4 -18 10 -15 15 3 5 0 12 -6 16 -8 4 -7 9 2 15 22 14 32 11 25 -7z m271
-30 c-4 -4 3 -20 14 -35 16 -23 17 -29 6 -29 -8 0 -20 14 -26 31 -14 39 -14
39 1 39 6 0 8 -3 5 -6z m-446 -27 c-1 -12 -15 -9 -19 4 -3 6 1 10 8 8 6 -3 11
-8 11 -12z m314 -37 c-3 -5 -10 -10 -16 -10 -5 0 -9 5 -9 10 0 6 7 10 16 10 8
0 12 -4 9 -10z m105 0 c0 -5 -2 -10 -4 -10 -3 0 -8 5 -11 10 -3 6 -1 10 4 10
6 0 11 -4 11 -10z m-293 -52 c-3 -7 -5 -2 -5 12 0 14 2 19 5 13 2 -7 2 -19 0
-25z m123 22 c0 -5 -2 -10 -4 -10 -3 0 -8 5 -11 10 -3 6 -1 10 4 10 6 0 11 -4
11 -10z m120 -14 c0 -3 -4 -8 -10 -11 -5 -3 -10 -1 -10 4 0 6 5 11 10 11 6 0
10 -2 10 -4z m-146 -31 c3 -8 1 -15 -4 -15 -6 0 -10 7 -10 15 0 8 2 15 4 15 2
0 6 -7 10 -15z"/>
<path d="M9500 3980 c0 -5 7 -10 15 -10 8 0 15 5 15 10 0 6 -7 10 -15 10 -8 0
-15 -4 -15 -10z"/>
<path d="M12046 4948 c-10 -38 -7 -42 14 -15 24 30 25 37 6 37 -7 0 -16 -10
-20 -22z"/>
<path d="M6617 4652 c-3 -4 -1 -18 4 -31 8 -19 12 -21 24 -11 8 7 15 15 15 19
0 10 -39 31 -43 23z"/>
<path d="M8400 4625 c0 -8 6 -15 14 -15 8 0 16 7 20 15 4 10 -1 15 -14 15 -11
0 -20 -7 -20 -15z"/>
<path d="M3076 4544 c-48 -30 -89 -54 -91 -54 -2 0 -56 -33 -122 -72 -65 -40
-130 -79 -144 -87 -147 -76 -280 -270 -306 -449 -13 -81 -10 -114 27 -307 89
-461 93 -475 168 -532 24 -18 62 -38 85 -44 48 -13 132 -6 183 16 38 16 519
300 545 322 13 11 15 34 12 145 -2 73 -6 134 -8 136 -2 2 -120 -66 -262 -151
-332 -199 -316 -191 -358 -177 -37 12 -59 55 -70 135 -5 34 -16 92 -61 319
-31 157 -30 191 10 254 22 35 69 66 315 213 l289 172 -19 34 c-49 88 -101 178
-103 180 -1 1 -41 -23 -90 -53z"/>
<path d="M8434 4586 c-10 -25 0 -38 13 -17 8 13 9 22 3 26 -6 4 -13 -1 -16 -9z"/>
<path d="M6656 4574 c-4 -9 -5 -19 -2 -21 8 -8 47 18 41 28 -10 15 -32 11 -39
-7z"/>
<path d="M11192 4561 c2 -7 7 -12 11 -12 12 1 9 15 -3 20 -7 2 -11 -2 -8 -8z"/>
<path d="M6625 4521 c-3 -5 -1 -12 4 -15 5 -3 11 1 15 9 6 16 -9 21 -19 6z"/>
<path d="M6667 4503 c-4 -3 -7 -11 -7 -17 0 -6 5 -5 12 2 6 6 9 14 7 17 -3 3
-9 2 -12 -2z"/>
<path d="M6860 4308 c0 -19 2 -20 10 -8 13 19 13 30 0 30 -5 0 -10 -10 -10
-22z"/>
<path d="M5926 4292 c-3 -5 2 -21 10 -36 16 -33 17 -39 5 -32 -5 3 -8 -6 -8
-20 0 -17 3 -22 9 -16 14 14 38 4 38 -15 0 -9 -6 -13 -15 -9 -8 3 -15 2 -15
-2 0 -5 -7 -17 -16 -28 -8 -10 -12 -13 -8 -5 5 10 3 13 -8 8 -9 -3 -23 2 -32
12 -11 12 -25 16 -41 13 -28 -5 -33 -27 -9 -36 9 -4 14 -13 10 -21 -3 -8 -2
-15 3 -15 5 0 11 -22 15 -50 5 -35 13 -53 26 -60 11 -6 20 -15 20 -21 0 -6
-13 -1 -29 10 -16 12 -33 21 -37 21 -4 0 -20 12 -36 27 -19 18 -31 23 -40 16
-19 -14 -64 -11 -60 5 4 24 -16 11 -23 -15 -3 -14 -15 -38 -26 -51 -10 -14
-17 -27 -14 -30 3 -3 11 3 19 13 12 17 13 16 20 -10 8 -32 -1 -46 -15 -25 -8
13 -10 13 -19 0 -5 -8 -10 -11 -10 -5 0 5 -7 0 -15 -12 -10 -14 -13 -33 -10
-50 4 -22 3 -24 -3 -8 -8 17 -14 10 -42 -50 -18 -38 -60 -126 -92 -195 -33
-69 -85 -181 -115 -250 -30 -69 -61 -138 -68 -155 -23 -49 -131 -316 -150
-370 -10 -27 -23 -56 -28 -63 -14 -18 0 -27 18 -12 10 8 15 9 15 1 0 -6 -4
-11 -10 -11 -5 0 -9 -5 -7 -11 1 -6 -6 -13 -16 -14 -23 -4 -21 -1 -40 -55 -9
-25 -35 -97 -58 -160 -56 -154 -70 -202 -59 -195 6 4 10 1 10 -4 0 -6 -6 -11
-13 -11 -12 0 -35 -67 -96 -273 -11 -37 -17 -75 -14 -84 4 -10 2 -14 -4 -10
-10 6 -53 -174 -53 -221 0 -40 31 -79 84 -106 80 -39 186 -86 195 -86 5 0 31
-9 57 -20 59 -26 120 -28 163 -6 34 18 134 105 139 121 2 6 13 15 25 22 14 8
16 12 7 13 -21 0 4 23 29 25 10 0 50 28 87 61 107 94 386 315 391 310 3 -3 7
-22 9 -43 2 -21 6 -63 9 -93 4 -30 8 -75 11 -99 15 -149 36 -271 44 -266 5 3
6 -4 3 -15 -6 -24 27 -160 39 -160 4 0 7 -5 6 -12 -4 -18 30 -21 48 -4 12 12
12 16 2 17 -7 0 -2 5 11 10 14 6 21 15 18 24 -4 9 -1 12 9 8 7 -3 14 0 14 7 0
6 5 8 10 5 6 -3 10 -17 10 -31 0 -16 6 -24 17 -24 13 0 14 -3 5 -12 -9 -9 -17
-7 -33 8 l-22 19 7 -37 c4 -22 3 -38 -2 -38 -5 0 -12 -11 -15 -25 -2 -14 -2
-23 1 -20 3 2 10 1 16 -5 7 -5 17 -5 26 0 12 8 11 10 -5 10 -18 1 -18 2 3 10
12 5 22 16 22 24 0 7 12 22 27 31 l27 18 -21 -28 c-19 -27 -19 -29 -2 -46 10
-10 16 -25 13 -32 -4 -10 3 -13 26 -9 16 2 30 9 30 16 0 6 9 17 20 24 11 7 20
19 20 27 0 8 8 20 18 26 18 11 18 30 4 92 -1 4 -2 12 -2 18 0 6 -7 8 -16 5
-10 -4 -22 1 -30 11 -21 28 -16 37 11 19 13 -9 27 -16 31 -16 3 0 3 28 0 63
-17 177 -33 474 -38 690 -1 48 -6 87 -10 87 -4 0 -8 -4 -8 -10 0 -5 -7 -10
-16 -10 -9 0 -13 -5 -9 -12 4 -7 0 -5 -8 5 -15 18 -16 18 -26 0 -10 -17 -10
-17 -11 3 0 11 5 25 12 32 9 9 8 12 -6 12 -10 0 -14 5 -10 11 4 7 7 26 7 43
-1 17 1 25 4 18 3 -6 9 -10 14 -6 5 3 10 -7 10 -23 2 -53 4 -58 22 -61 9 -2
17 1 17 6 0 5 13 15 30 22 16 7 28 17 27 24 -1 6 5 11 13 12 31 1 239 109 246
127 13 41 -84 98 -195 115 -53 8 -68 6 -97 -8 -19 -10 -37 -14 -40 -9 -3 5 2
9 10 9 12 0 16 11 16 48 0 68 -9 93 -31 90 -10 -2 -18 2 -18 7 0 6 9 9 20 8
10 -2 19 1 20 5 1 4 2 133 4 287 1 195 -1 282 -9 287 -8 5 -7 11 2 20 13 13
17 153 4 144 -4 -2 -9 5 -9 17 -2 17 0 19 7 7 11 -18 11 -22 14 88 1 40 -2 76
-6 78 -4 3 -8 11 -8 17 0 7 4 6 10 -3 7 -11 10 -8 9 15 0 17 -3 24 -6 18 -2
-7 -12 -13 -21 -12 -10 0 -12 3 -5 5 7 3 9 12 6 20 -4 10 0 12 11 8 14 -5 16
3 17 52 0 33 2 70 4 84 3 29 7 124 6 157 -1 17 -5 21 -18 16 -17 -5 -17 -5 0
8 36 28 3 92 -65 129 l-44 23 -56 -20 -56 -20 -22 29 c-11 16 -25 26 -30 23
-6 -3 -7 1 -4 9 7 17 3 19 -20 10 -8 -3 -13 -13 -10 -22 3 -9 -1 -6 -9 8 -9
14 -25 26 -36 26 -38 3 -41 4 -41 18 0 18 -16 30 -24 18z m405 -192 c-27 -23
-48 -27 -29 -6 7 8 16 12 21 9 4 -2 7 1 7 6 0 6 6 11 13 11 6 -1 1 -10 -12
-20z m-361 4 c0 -8 -19 -13 -24 -6 -3 5 1 9 9 9 8 0 15 -2 15 -3z m57 -30 c-3
-3 -12 -4 -19 -1 -8 3 -5 6 6 6 11 1 17 -2 13 -5z m23 -74 c0 -10 -10 -22 -21
-25 -17 -6 -19 -9 -8 -16 11 -7 10 -9 -3 -9 -24 0 -23 26 1 47 11 9 17 21 14
26 -3 6 -1 7 5 3 7 -4 12 -16 12 -26z m-120 -25 c0 -8 -2 -15 -4 -15 -2 0 -6
7 -10 15 -3 8 -1 15 4 15 6 0 10 -7 10 -15z m-160 -35 c0 -5 -8 -10 -17 -10
-15 0 -16 2 -3 10 19 12 20 12 20 0z m548 -46 c-4 -6 -4 -14 0 -19 4 -4 0 -6
-8 -3 -8 2 -16 17 -18 32 -3 20 -8 26 -19 22 -13 -5 -14 -4 -3 9 11 14 15 13
34 -7 13 -14 19 -28 14 -34z m-254 31 c11 -8 18 -15 15 -16 -2 -1 -19 -2 -37
-4 -37 -3 -50 9 -25 24 23 13 24 13 47 -4z m-354 -35 c0 -5 -2 -10 -4 -10 -3
0 -8 5 -11 10 -3 6 -1 10 4 10 6 0 11 -4 11 -10z m70 -10 c0 -5 -5 -10 -11
-10 -5 0 -7 5 -4 10 3 6 8 10 11 10 2 0 4 -4 4 -10z m197 -22 c-3 -8 -6 -5 -6
6 -1 11 2 17 5 13 3 -3 4 -12 1 -19z m353 -22 c0 -7 -7 -19 -15 -26 -9 -8 -15
-9 -15 -2 0 6 5 14 11 18 8 4 7 9 -2 15 -11 7 -10 9 4 9 9 0 17 -6 17 -14z
m-375 -118 c-3 -57 -5 -103 -6 -103 -11 0 -20 -760 -10 -805 5 -22 5 -40 1
-40 -4 0 -6 -21 -4 -47 2 -27 5 -103 6 -170 l3 -122 -30 -17 c-16 -10 -32 -20
-35 -23 -3 -3 -34 -26 -70 -50 -57 -40 -109 -78 -240 -179 -76 -59 -320 -268
-394 -338 -86 -82 -80 -83 -60 16 5 24 3 30 -10 30 -15 0 -15 2 1 24 10 13 21
20 24 14 5 -7 33 72 33 92 0 3 5 16 12 29 8 16 10 29 4 36 -6 7 -2 17 11 29
13 11 19 25 16 37 -3 10 -1 19 3 19 14 0 22 38 15 71 -4 16 -12 28 -18 26 -15
-5 -16 -25 -3 -55 12 -28 -9 -57 -24 -33 -7 13 -11 13 -26 0 -15 -13 -16 -12
-9 11 4 14 12 28 17 31 5 3 2 11 -6 18 -16 13 -12 36 12 64 22 25 39 21 54
-13 7 -17 17 -29 22 -27 5 2 26 52 48 112 21 61 44 119 49 129 28 50 68 161
59 164 -6 2 -8 8 -4 13 3 5 0 9 -5 9 -17 0 -13 37 4 44 15 5 18 -2 16 -39 l-1
-20 10 20 c68 141 147 338 143 360 -4 19 -2 24 9 20 11 -4 27 21 59 92 24 54
67 145 95 203 52 106 52 126 5 100 -22 -11 -29 -40 -10 -40 5 0 7 -4 4 -10 -3
-5 -13 -10 -22 -10 -9 0 -14 3 -11 6 3 3 -5 17 -19 32 -15 17 -20 28 -13 30 7
3 16 -1 20 -8 14 -22 43 -3 38 24 -4 20 0 26 21 31 14 3 35 8 46 11 18 4 18 4
4 -8 -9 -7 -14 -20 -11 -28 3 -8 17 10 34 45 19 39 25 62 18 69 -13 13 -13 36
-1 36 5 0 11 -8 13 -17 2 -10 21 18 46 66 28 55 41 91 37 105 -5 17 -4 18 4 6
9 -13 12 -12 17 8 11 41 13 23 9 -80z m335 92 c0 -5 -2 -10 -4 -10 -3 0 -8 5
-11 10 -3 6 -1 10 4 10 6 0 11 -4 11 -10z m-245 -10 c3 -5 -1 -10 -9 -10 -8 0
-18 5 -21 10 -3 6 1 10 9 10 8 0 18 -4 21 -10z m55 -4 c0 -8 -4 -18 -10 -21
-5 -3 -10 -4 -10 -1 0 2 -3 11 -6 20 -4 11 -1 16 10 16 9 0 16 -6 16 -14z
m-394 -8 c4 -7 3 -8 -5 -4 -6 4 -21 4 -32 1 -15 -5 -20 -13 -17 -29 4 -20 2
-21 -17 -12 l-22 10 21 23 c21 24 60 31 72 11z m69 1 c11 -17 -1 -21 -15 -4
-8 9 -8 15 -2 15 6 0 14 -5 17 -11z m83 -37 c2 -7 -3 -12 -12 -12 -9 0 -16 7
-16 16 0 17 22 14 28 -4z m167 -32 c3 -5 1 -10 -4 -10 -6 0 -11 5 -11 10 0 6
2 10 4 10 3 0 8 -4 11 -10z m-483 -50 c-5 -13 -11 -19 -14 -14 -3 5 -1 20 4
34 13 31 22 12 10 -20z m251 -20 c-5 -19 -23 -29 -23 -12 0 7 20 32 26 32 1 0
0 -9 -3 -20z m-73 -25 c0 -7 10 -17 23 -21 21 -7 21 -7 2 -15 -30 -11 -35 -10
-29 6 4 8 1 15 -4 15 -6 0 -10 9 -9 19 1 22 17 18 17 -4z m340 21 c0 -2 -7 -6
-15 -10 -8 -3 -15 -1 -15 4 0 6 7 10 15 10 8 0 15 -2 15 -4z m-409 -56 c6 0 7
5 4 10 -3 6 -1 10 4 10 6 0 11 -7 11 -15 0 -8 4 -15 8 -15 4 0 6 -16 4 -36 -5
-37 -17 -38 -17 -1 0 15 -5 21 -16 19 -9 -1 -22 5 -29 13 -9 10 -9 15 -1 15 6
0 12 8 12 18 1 16 2 16 6 0 2 -10 9 -18 14 -18z m-84 -13 c-6 -19 -23 -18 -24
2 -1 14 3 18 13 14 8 -3 13 -10 11 -16z m495 1 c-7 -7 -12 -8 -12 -2 0 14 12
26 19 19 2 -3 -1 -11 -7 -17z m-62 -18 c0 -5 -9 -10 -20 -10 -11 0 -20 5 -20
10 0 6 9 10 20 10 11 0 20 -4 20 -10z m320 -12 c0 -18 -2 -20 -9 -8 -6 8 -7
18 -5 22 9 14 14 9 14 -14z m-575 2 c3 -5 -3 -10 -14 -10 -12 0 -21 5 -21 10
0 6 6 10 14 10 8 0 18 -4 21 -10z m261 -23 c4 -4 0 -7 -9 -7 -10 0 -17 -8 -17
-19 0 -11 -5 -23 -12 -27 -7 -4 -8 -3 -4 4 4 7 2 12 -3 12 -8 0 -9 38 -2 46 4
4 42 -4 47 -9z m24 -42 c0 -8 -9 -15 -20 -15 -13 0 -18 5 -14 15 4 8 12 15 20
15 8 0 14 -7 14 -15z m134 -10 c-4 -8 -11 -15 -16 -15 -6 0 -5 6 2 15 7 8 14
15 16 15 2 0 1 -7 -2 -15z m-27 -47 c-3 -8 -6 -5 -6 6 -1 11 2 17 5 13 3 -3 4
-12 1 -19z m-593 -33 c-4 -8 -7 -15 -9 -15 -2 0 -5 7 -9 15 -3 9 0 15 9 15 9
0 12 -6 9 -15z m477 0 c-1 -15 -24 -12 -29 3 -3 9 2 13 12 10 10 -1 17 -7 17
-13z m175 -36 c19 -22 19 -22 -3 -8 -13 8 -23 17 -23 21 0 12 6 9 26 -13z
m-642 -19 c-6 -6 -10 -3 -10 10 0 13 4 16 10 10 7 -7 7 -13 0 -20z m456 2 c0
-13 -12 -22 -22 -16 -10 6 -1 24 13 24 5 0 9 -4 9 -8z m153 -53 c22 -2 22 -2
0 -6 -13 -2 -23 -11 -23 -19 0 -8 -4 -14 -8 -14 -5 0 -8 12 -6 28 3 42 6 49
11 30 2 -10 14 -19 26 -19z m37 -23 c0 -2 -7 -7 -16 -10 -8 -3 -12 -2 -9 4 6
10 25 14 25 6z m-113 -61 c0 -8 -4 -15 -9 -15 -10 0 -11 14 -1 23 9 10 10 9
10 -8z m141 4 c-2 -6 -8 -10 -13 -10 -5 0 -11 4 -13 10 -2 6 4 11 13 11 9 0
15 -5 13 -11z m-718 -25 c0 -8 -5 -12 -10 -9 -6 4 -8 11 -5 16 9 14 15 11 15
-7z m50 -4 c0 -5 -4 -10 -10 -10 -5 0 -10 5 -10 10 0 6 5 10 10 10 6 0 10 -4
10 -10z m515 -38 c-10 -10 -16 -12 -13 -7 3 6 8 19 13 30 5 14 9 16 12 7 3 -8
-3 -21 -12 -30z m185 24 c0 -3 -4 -8 -10 -11 -5 -3 -10 -1 -10 4 0 6 5 11 10
11 6 0 10 -2 10 -4z m-210 -26 c0 -5 -2 -10 -4 -10 -3 0 -8 5 -11 10 -3 6 -1
10 4 10 6 0 11 -4 11 -10z m34 -52 c-8 -13 -31 -9 -37 6 -3 8 -3 16 0 19 8 8
43 -16 37 -25z m31 12 c3 -5 1 -10 -4 -10 -6 0 -11 5 -11 10 0 6 2 10 4 10 3
0 8 -4 11 -10z m-97 -20 c15 -1 15 -2 -2 -15 -16 -12 -34 -13 -64 -6 -1 1 3 8
10 16 7 8 19 12 26 10 8 -3 21 -5 30 -5z m249 -32 c-3 -8 -6 -5 -6 6 -1 11 2
17 5 13 3 -3 4 -12 1 -19z m-162 -28 c15 0 8 -40 -9 -53 -7 -5 -5 -12 8 -22
11 -8 14 -15 7 -15 -7 0 -9 -4 -6 -10 3 -5 -5 -21 -19 -35 -27 -27 -26 -56 6
-91 16 -18 17 -22 4 -27 -9 -4 -19 1 -24 9 -8 14 -13 13 -45 -2 -35 -17 -38
-17 -54 -1 -16 16 -16 17 10 17 15 0 27 5 27 11 0 8 4 8 13 1 10 -9 13 1 13
44 1 31 -1 52 -5 47 -7 -11 -51 -15 -52 -5 -7 80 1 137 14 100 5 -17 37 8 37
29 0 8 5 11 10 8 6 -3 10 1 10 9 0 22 34 25 38 4 2 -10 9 -18 17 -18z m-85 5
c0 -8 -7 -15 -15 -15 -26 0 -18 20 13 29 1 1 2 -6 2 -14z m241 -53 c-7 -2 -18
1 -23 6 -8 8 -4 9 13 5 13 -4 18 -8 10 -11z m-266 -112 c-3 -5 -14 -10 -23
-10 -15 0 -15 2 -2 10 20 13 33 13 25 0z m-785 -50 c0 -5 -4 -10 -9 -10 -6 0
-13 5 -16 10 -3 6 1 10 9 10 9 0 16 -4 16 -10z m-20 -28 c-21 -7 -23 -6 -26
10 -2 14 1 15 17 5 11 -7 15 -13 9 -15z m68 -64 c0 -7 4 -31 8 -52 5 -29 4
-37 -4 -32 -7 4 -12 14 -12 22 0 8 -5 14 -11 14 -8 0 -8 4 0 14 9 11 9 16 0
21 -8 6 -7 10 2 16 8 5 14 9 15 9 0 0 1 -6 2 -12z m-58 -8 c0 -5 -5 -10 -11
-10 -5 0 -7 5 -4 10 3 6 8 10 11 10 2 0 4 -4 4 -10z m1130 -60 c0 -49 -12 -66
-24 -34 -8 21 3 84 15 84 5 0 9 -22 9 -50z m-304 -7 c-2 -9 -8 -19 -15 -21 -9
-3 -9 -8 1 -20 12 -15 11 -16 -4 -3 -10 7 -18 17 -18 22 0 5 8 9 18 10 12 0
13 2 3 6 -11 5 -11 7 0 14 18 11 18 12 15 -8z m264 13 c0 -3 -4 -8 -10 -11 -5
-3 -10 -1 -10 4 0 6 5 11 10 11 6 0 10 -2 10 -4z m-140 -38 c0 -4 -7 -8 -15
-8 -11 0 -16 -10 -15 -32 0 -54 -3 -69 -14 -65 -6 3 -19 0 -30 -5 -14 -8 -17
-7 -14 4 3 7 14 14 26 16 18 3 20 7 12 28 -6 16 -6 24 1 24 6 0 8 4 5 9 -3 5
-16 7 -29 5 -12 -2 -16 -2 -9 2 6 3 12 11 12 18 0 7 14 12 35 12 19 0 35 -4
35 -8z m137 -3 c0 -8 -4 -12 -9 -9 -5 3 -6 10 -3 15 9 13 12 11 12 -6z m-1127
-18 c0 -6 3 -7 7 -4 7 8 33 -11 33 -24 0 -5 -7 -6 -16 -2 -14 5 -15 3 -6 -14
6 -11 8 -23 4 -27 -3 -4 -5 -23 -3 -42 1 -18 -1 -34 -6 -34 -4 0 -8 23 -7 50
0 36 -3 50 -13 50 -7 0 -13 3 -14 8 -5 48 -3 59 8 55 7 -3 13 -10 13 -16z
m133 -20 c-7 -11 -23 2 -23 19 0 12 2 12 14 2 8 -7 12 -16 9 -21z m1007 -1 c0
-2 -9 -6 -20 -9 -11 -3 -20 -1 -20 4 0 5 9 9 20 9 11 0 20 -2 20 -4z m-265
-16 c-3 -5 -11 -10 -16 -10 -6 0 -7 5 -4 10 3 6 11 10 16 10 6 0 7 -4 4 -10z
m332 -15 c0 -17 -13 -20 -21 -6 -4 5 0 12 6 14 7 3 13 6 14 6 0 1 1 -6 1 -14z
m-362 -14 c3 -5 1 -12 -5 -16 -5 -3 -10 1 -10 9 0 18 6 21 15 7z m-28 -33 c-3
-8 -6 -5 -6 6 -1 11 2 17 5 13 3 -3 4 -12 1 -19z m360 16 c-3 -3 -12 -4 -19
-1 -8 3 -5 6 6 6 11 1 17 -2 13 -5z m-1058 -60 c-17 -21 -21 -11 -8 22 10 23
13 25 16 11 3 -10 -1 -25 -8 -33z m769 28 c15 12 16 11 3 -4 -19 -25 -31 -22
-30 5 1 17 2 18 6 4 4 -15 7 -16 21 -5z m268 -31 c0 -37 -4 -47 -12 -40 -8 7
-15 6 -20 -2 -9 -15 -33 40 -26 60 4 10 8 8 13 -7 12 -31 26 -27 34 8 4 17 8
30 9 30 1 0 2 -22 2 -49z m-238 8 c-6 -17 -8 -46 -5 -66 5 -29 3 -36 -13 -40
-10 -3 -20 -12 -22 -21 -2 -12 -9 -10 -33 11 -17 15 -24 27 -16 27 9 0 11 8 7
25 -6 22 -3 25 19 25 15 0 24 4 20 9 -3 6 4 15 15 21 11 6 20 17 20 25 0 8 4
15 9 15 6 0 6 -12 -1 -31z m69 -24 c-21 -8 -24 -14 -15 -23 13 -13 5 -27 -11
-17 -27 16 6 69 36 58 14 -6 12 -9 -10 -18z m-147 5 c0 -5 -7 -7 -15 -4 -8 4
-15 8 -15 10 0 2 7 4 15 4 8 0 15 -4 15 -10z m-875 -28 c-3 -3 -11 0 -18 7 -9
10 -8 11 6 5 10 -3 15 -9 12 -12z m1232 12 c-3 -3 -12 -4 -19 -1 -8 3 -5 6 6
6 11 1 17 -2 13 -5z m-1159 -18 c-15 -11 -15 -15 -3 -27 12 -12 11 -17 -6 -39
l-20 -25 6 26 c5 19 2 28 -9 32 -24 9 -19 24 12 35 37 14 40 14 20 -2z m64
-15 c-12 -10 -19 -21 -15 -25 3 -3 1 -6 -6 -6 -14 0 -11 31 4 42 6 4 16 8 24
8 9 0 7 -6 -7 -19z m1102 -37 c3 -8 2 -12 -4 -9 -6 3 -10 10 -10 16 0 14 7 11
14 -7z m-374 -18 c0 -8 6 -16 13 -19 9 -3 9 -8 1 -17 -9 -9 -17 -9 -34 0 -17
9 -19 14 -10 20 7 4 9 13 6 19 -4 6 0 11 8 11 9 0 16 -6 16 -14z m294 -129 c4
-19 3 -26 -4 -22 -5 3 -10 18 -10 32 0 32 5 28 14 -10z m55 -4 c2 -2 -3 -3
-11 -3 -9 0 -19 7 -22 16 -6 15 -4 15 11 3 10 -7 20 -15 22 -16z m-1319 -7 c0
-11 -19 -15 -25 -6 -3 5 1 10 9 10 9 0 16 -2 16 -4z m1194 -12 c4 -11 1 -14
-11 -12 -9 2 -18 9 -21 16 -6 18 25 15 32 -4z m-1029 -53 c3 -5 1 -12 -5 -16
-5 -3 -10 1 -10 9 0 18 6 21 15 7z m-191 -17 c3 -8 2 -12 -4 -9 -6 3 -10 10
-10 16 0 14 7 11 14 -7z m620 1 c3 -9 0 -15 -9 -15 -9 0 -12 6 -9 15 4 8 7 15
9 15 2 0 5 -7 9 -15z m256 -21 c0 -8 -4 -14 -9 -14 -11 0 -22 26 -14 34 9 9
23 -3 23 -20z m383 11 c-3 -9 -8 -14 -10 -11 -3 3 -2 9 2 15 9 16 15 13 8 -4z
m-61 -33 c-6 -2 -9 -9 -5 -15 4 -7 -2 -5 -13 3 -10 8 -21 15 -23 17 -1 1 0 6
4 12 4 8 13 8 28 -1 14 -7 17 -13 9 -16z m-1032 4 c0 -3 -4 -8 -10 -11 -5 -3
-10 -1 -10 4 0 6 5 11 10 11 6 0 10 -2 10 -4z m700 -26 c0 -5 -4 -10 -10 -10
-5 0 -10 5 -10 10 0 6 5 10 10 10 6 0 10 -4 10 -10z m-943 -82 c-3 -7 -5 -2
-5 12 0 14 2 19 5 13 2 -7 2 -19 0 -25z m531 3 c-2 -14 -10 -27 -18 -29 -12
-4 -13 -3 -3 10 16 18 5 32 -14 17 -10 -9 -13 -7 -13 6 0 15 -2 16 -17 4 -16
-12 -16 -12 -6 1 6 8 25 15 43 15 27 0 30 -3 28 -24z m187 -1 c-3 -5 -10 -10
-16 -10 -5 0 -9 5 -9 10 0 6 7 10 16 10 8 0 12 -4 9 -10z m45 -11 c0 -6 -4 -7
-10 -4 -5 3 -10 11 -10 16 0 6 5 7 10 4 6 -3 10 -11 10 -16z m-620 1 c0 -5 -6
-10 -14 -10 -8 0 -18 5 -21 10 -3 6 3 10 14 10 12 0 21 -4 21 -10z m405 -40
c-3 -5 -13 -10 -21 -10 -8 0 -14 5 -14 10 0 6 9 10 21 10 11 0 17 -4 14 -10z
m-383 -17 c-6 -2 -9 -10 -6 -15 4 -7 2 -8 -4 -4 -18 11 -14 26 6 25 10 0 12
-3 4 -6z m298 -23 c0 -5 -7 -7 -15 -4 -8 4 -12 10 -9 15 6 11 24 2 24 -11z m2
-64 c-7 -13 -21 16 -14 32 4 13 7 12 12 -4 4 -10 5 -23 2 -28z m-447 24 c3 -5
2 -10 -4 -10 -5 0 -13 5 -16 10 -3 6 -2 10 4 10 5 0 13 -4 16 -10z m592 -12
c-3 -8 -6 -5 -6 6 -1 11 2 17 5 13 3 -3 4 -12 1 -19z m-437 -36 c0 -1 -9 2
-20 8 -11 6 -20 15 -20 20 0 6 9 2 20 -7 11 -10 20 -19 20 -21z m540 18 c0 -5
-5 -10 -11 -10 -5 0 -7 5 -4 10 3 6 8 10 11 10 2 0 4 -4 4 -10z m-243 -16 c-3
-3 -12 -4 -19 -1 -8 3 -5 6 6 6 11 1 17 -2 13 -5z m-124 -37 c-3 -5 -10 -4
-15 1 -6 6 -7 16 -3 22 6 9 9 9 16 -1 4 -7 5 -17 2 -22z m-136 -29 c-3 -8 -6
-5 -6 6 -1 11 2 17 5 13 3 -3 4 -12 1 -19z m269 3 c-9 -13 3 -39 19 -43 10 -2
9 -8 -5 -26 -16 -19 -19 -20 -18 -5 0 10 -3 29 -6 42 -5 23 -1 41 10 41 3 0 3
-4 0 -9z m119 -37 c-27 -20 -33 -17 -27 11 4 21 7 23 25 13 20 -10 20 -11 2
-24z m-675 12 c0 -3 -4 -8 -10 -11 -5 -3 -10 -1 -10 4 0 6 5 11 10 11 6 0 10
-2 10 -4z m262 -18 c-7 -7 -12 -8 -12 -2 0 14 12 26 19 19 2 -3 -1 -11 -7 -17z
m193 -11 c14 -14 9 -71 -6 -62 -4 3 -6 12 -3 20 3 7 1 23 -6 34 -12 24 -5 28
15 8z m-361 -12 c3 -8 1 -15 -4 -15 -6 0 -10 7 -10 15 0 8 2 15 4 15 2 0 6 -7
10 -15z m333 -47 c-3 -7 -5 -2 -5 12 0 14 2 19 5 13 2 -7 2 -19 0 -25z m-312
2 c3 -5 -1 -10 -9 -10 -9 0 -16 5 -16 10 0 6 4 10 9 10 6 0 13 -4 16 -10z
m250 -40 c3 -5 1 -10 -4 -10 -6 0 -11 5 -11 10 0 6 2 10 4 10 3 0 8 -4 11 -10z
m135 -35 c7 -9 8 -15 2 -15 -5 0 -12 7 -16 15 -3 8 -4 15 -2 15 2 0 9 -7 16
-15z m900 -50 c-14 -17 -30 -20 -30 -6 0 5 8 12 18 14 9 3 19 5 21 6 2 0 -2
-6 -9 -14z m-33 -50 c-9 -8 -25 -15 -36 -15 -30 0 -15 28 17 32 35 4 38 2 19
-17z m48 -5 c3 -5 1 -10 -4 -10 -6 0 -11 5 -11 10 0 6 2 10 4 10 3 0 8 -4 11
-10z m43 -43 c2 -12 -3 -17 -17 -17 -15 0 -21 6 -21 21 0 25 33 22 38 -4z m77
-26 c-3 -5 -1 -12 5 -16 5 -3 10 -11 10 -17 0 -6 -3 -8 -7 -5 -3 4 -12 2 -19
-4 -8 -7 -14 -7 -19 1 -3 5 0 10 8 10 10 0 13 7 10 20 -3 12 0 20 6 20 7 0 10
-4 6 -9z m-45 -41 c0 -5 -5 -10 -11 -10 -5 0 -7 5 -4 10 3 6 8 10 11 10 2 0 4
-4 4 -10z"/>
<path d="M6040 2844 c0 -8 5 -12 10 -9 6 4 8 11 5 16 -9 14 -15 11 -15 -7z"/>
<path d="M6036 2394 c-11 -28 -6 -39 9 -20 8 11 15 23 15 28 0 14 -18 9 -24
-8z"/>
<path d="M5815 4180 c-3 -5 -1 -10 4 -10 6 0 11 5 11 10 0 6 -2 10 -4 10 -3 0
-8 -4 -11 -10z"/>
<path d="M10241 4170 c0 -8 4 -24 9 -35 5 -13 9 -14 9 -5 0 8 -4 24 -9 35 -5
13 -9 14 -9 5z"/>
<path d="M5915 4160 c-3 -5 1 -10 9 -10 9 0 16 5 16 10 0 6 -4 10 -9 10 -6 0
-13 -4 -16 -10z"/>
<path d="M5740 4080 c0 -13 18 -22 24 -11 3 5 -1 11 -9 15 -8 3 -15 1 -15 -4z"/>
<path d="M6876 3991 c-4 -7 -5 -15 -2 -18 9 -9 19 4 14 18 -4 11 -6 11 -12 0z"/>
<path d="M9300 3795 c-2 -22 -3 -52 -4 -66 -1 -18 2 -25 11 -22 7 3 11 9 8 13
-3 5 -2 10 3 12 4 1 2 26 -4 53 l-12 50 -2 -40z"/>
<path d="M10162 3606 c-48 -89 -161 -176 -213 -163 -28 7 -23 -6 14 -39 34
-30 71 -35 60 -8 -3 8 1 14 8 14 7 0 9 -3 6 -7 -12 -11 23 -41 43 -36 10 3 27
0 38 -6 24 -13 36 -3 19 17 -9 12 -9 16 1 19 14 5 17 43 2 43 -5 0 -10 -5 -10
-10 0 -7 -7 -7 -21 1 -16 8 -18 14 -10 22 7 7 16 12 22 12 5 0 21 14 35 30
l26 30 -21 -32 c-27 -40 -27 -56 0 -24 20 24 21 24 50 7 29 -17 31 -17 57 0
22 15 24 19 10 22 -18 3 -22 14 -19 41 2 7 -2 10 -7 7 -6 -3 -10 9 -10 28 0
42 -18 76 -40 76 -10 0 -27 -18 -40 -44z m-22 -86 c0 -5 -7 -7 -15 -4 -8 4
-15 8 -15 10 0 2 7 4 15 4 8 0 15 -4 15 -10z"/>
<path d="M9926 3271 c-4 -7 -5 -15 -2 -18 9 -9 19 4 14 18 -4 11 -6 11 -12 0z"/>
<path d="M6862 3212 c1 -34 6 -62 11 -62 9 0 2 108 -7 118 -4 3 -6 -22 -4 -56z"/>
<path d="M6879 2897 c-8 -24 -5 -38 8 -35 22 4 27 24 8 31 -8 4 -15 5 -16 4z"/>
<path d="M6895 2670 c-8 -13 5 -13 25 0 13 8 13 10 -2 10 -9 0 -20 -4 -23 -10z"/>
<path d="M6402 1308 c-1 -9 -9 -24 -18 -33 -9 -9 -13 -23 -10 -32 12 -30 38 8
33 48 -2 19 -5 26 -5 17z"/>
</g>
</svg>
